<?xml version="1.0" encoding="UTF-8"?>
<svg id="Layer_1" data-name="Layer 1" xmlns="http://www.w3.org/2000/svg" viewBox="0 0 341.21 283.33">
  <defs>
    <style>
      .cls-1 {
        fill: #05333f;
      }

      .cls-2 {
        fill: #d4745a;
      }
    </style>
  </defs>
  <path class="cls-2" d="M273.8,187.81s-30.93-54.17,23.57-86.22c0,0,20.88-10.82,42.55,8.63,0,0,10.15,7.56-26.57,36.72,0,0-33.32,26.03-39.56,40.87Z"/>
  <path class="cls-2" d="M222.28,104.59s-53.49,.81-40.07-67.33c0,0,8.03-40.5,30.71-37.04,22.68,3.46,14.63,38.63,13.28,45.28,0,0-11.12,42.3-3.92,59.1Z"/>
  <path class="cls-2" d="M171.28,104.84s-51.59,30.63-61.32-49.31c0,0-3.97-49.41,21.59-49.92,0,0,18.82-4.87,20.17,49.99,0,0-.48,38.1,19.55,49.24Z"/>
  <path class="cls-2" d="M87.92,154.55S10.35,110.07,.57,137.33c0,0-9.25,24.07,46.47,36.82,0,0,31.08,8.52,40.88-19.6Z"/>
  <path class="cls-1" d="M272.15,206.27c-18.58-13.53-33.88-38.51-41.09-60.12,0,0-13.76-37.89-42.41-30.14-28.87,7.81-68.75,16.27-84.87,44.53-9.76,17.12-1.72,34.88,5.47,51.24,6.16,14.03,13.72,27.6,23.36,39.54,19.39,24,47.2,37.71,78.16,29.73,18.48-4.76,38-14.07,51.88-27.22,6.06-5.74,11.21-12.7,13.58-20.8,2.25-7.7,3.07-21.55-4.09-26.75Zm-144.42-3.25c-2.61-6.87,1.21-17.32,9.54-23.03,9.14-6.26,21.92-5.51,29.24,1.1-7.43,1.51-16.37,1.43-23.14,5.23-6.54,3.67-10.84,11.33-15.64,16.7Zm39.63,10.87c-.81,5.09-3.23,8.42-8.38,8.9-5.36,.5-8.62-2.91-10.98-7.23-.8-1.45-1.21-3.12-1.99-5.22-2.6,1.2-4.98,2.3-8.21,3.8,.59-6.4,4.24-9.75,9.02-11.28,9.48-3.03,17.91-.59,24.65,6.05-1.7,1.98-3.85,3.33-4.11,4.98Zm3.39,26.91c20.15,1.99,35.93-3.18,47.43-18.96-.13,15.55-26.06,30.91-47.43,18.96Zm44.28-41.51c-4.9,3.92-9.55,1.65-14.03-1.73-2.02,1.7-3.83,3.22-6.38,5.36,.5-10.36,5.04-17.34,12.78-22.1,5.4-3.32,11.29-4.45,18.04,.02-3.42,1.15-5.79,1.95-8.67,2.92,2.53,5.65,3.64,11.22-1.74,15.52Zm-24.89-20.73c.86-9.44,6.99-16.58,16.08-18.72,9.77-2.3,19.8,2.01,24.95,10.72-26.97-5.67-22.31-5.08-41.03,8Z"/>
  <g>
    <path class="cls-1" d="M50.37,100.31c1.61,3.03,3.3,5.79,5.03,8.33l8.55-26.12,26.06,3.9c-.64-1.66-1.31-3.38-2.01-5.18-.54-1.39-1.09-2.73-1.64-4.01l-26.57-3.8-9.42,26.88Z"/>
    <path class="cls-1" d="M95.08,99.76l-22.77-4.04-8.49,23.16c2.2,2.21,4.44,4.13,6.68,5.81l6.76-20.65,20.55,3.07c-.82-2.24-1.72-4.68-2.72-7.35Z"/>
    <path class="cls-1" d="M51.44,60.23l28.32,4.23c-15.22-24.11-30.66-15.71-30.66-15.71-11.71,6.25-8.96,23.49-5.42,35.19l7.77-23.72Z"/>
    <path class="cls-1" d="M102.78,120.71l-17.16-3.45-4.28,13.76c15.86,6.91,29.43,3.53,29.43,3.53-3.45-2.81-4.78-5.23-7.99-13.84Z"/>
  </g>
</svg>