<?xml version="1.0" encoding="UTF-8"?>
<svg id="Layer_1" data-name="Layer 1" xmlns="http://www.w3.org/2000/svg" viewBox="0 0 420.22 420.32">
  <g id="skill">
    <path class="cls-1"
      d="M389.8,238.81q15.62-3.25,15.65-18.65c.01-9.74-.31-19.5,.12-29.22,.26-5.86-2.33-7.87-7.62-8.33-9.03-.79-18.01-2.37-27.05-2.71-12.6-.47-20.3-6.35-23.12-18.57-1.41-6.11-4.27-11.6-7.23-16.99-4.78-8.68-3.65-16.45,2.41-23.94,6.82-8.43,13.41-17.05,20.37-25.37,2.53-3.03,2.52-5.03-.33-7.79-10.15-9.85-20.24-19.77-30.08-29.94-3.35-3.46-5.68-1.88-8.42,.34-8.25,6.66-16.59,13.21-24.76,19.98-6.86,5.69-14.16,6.79-22.12,2.76-7.71-3.9-15.7-7.1-23.87-9.91-8.48-2.92-12.4-9.03-13.03-18.03-.69-9.88-2.53-19.65-2.94-29.59-.22-5.34-2.79-8.13-8.94-7.89-13.04,.51-26.12,.44-39.18,.2-4.72-.09-6.28,2.02-6.7,6.16-1,9.87-2.43,19.72-3.09,29.61-.68,10.14-4.74,17.02-14.93,20.25-7.33,2.33-14.5,5.42-21.36,8.93-8.41,4.3-15.72,3.07-22.78-2.57-8.3-6.62-16.68-13.15-24.86-19.91-3.24-2.68-5.69-3.25-8.95,.13-9.51,9.87-19.2,19.57-29,29.15-3.42,3.34-3.37,5.8-.22,9.42,6.68,7.67,12.84,15.79,19.29,23.66,6.08,7.42,7.27,15.08,2.8,23.95-3.57,7.08-6.33,14.6-9.03,22.08-3.05,8.46-8.8,12.83-17.73,13.57-9.46,.79-18.89,1.94-28.33,2.93-8.46,.89-9.68,2.27-9.68,10.68,0,12.4,.04,24.8-.13,37.19-.05,3.94,.93,6.12,5.38,6.53,10.53,.97,21.01,2.54,31.54,3.6,9.77,.98,16.41,5.28,19.33,15.21,2.24,7.6,5.7,14.81,9.27,21.94,3.72,7.41,2.85,14.57-2.34,21.1-6.87,8.65-13.62,17.41-20.73,25.86-2.71,3.22-2.82,5.34,.24,8.33,9.97,9.74,19.77,19.66,29.52,29.62,2.6,2.65,4.61,3.2,7.78,.55,7.96-6.68,16.45-12.72,24.34-19.48,8.11-6.95,16.43-7.72,25.69-2.76,6.83,3.66,13.99,6.57,21.41,8.83,8.21,2.51,12.18,8.47,13.11,16.6,1.15,10.08,2.17,20.18,2.93,30.29,.45,6.01,2.19,8.92,9.28,8.45,12.35-.83,24.8-.76,37.17-.2,6.22,.28,8.43-2.26,8.99-7.67,1-9.65,2.1-19.29,2.94-28.95,.65-7.48,3.03-13.7,10.19-17.38,3.58-1.85,6.18-2.14,7.71,2.35,.56,1.65,1.45,3.26,2.5,4.66,2.08,2.77,2.8,4.91-1.46,6.2-3.35,1.02-3.8,4.09-4.12,6.95-1.1,9.87-2.13,19.74-3.06,29.63-1.26,13.51-7.53,19.44-20.89,19.49-13.95,.05-27.91-.3-41.84,.16-14.5,.48-20.89-6.75-22.37-21.13-1.02-9.88-2.09-19.75-2.95-29.64-.29-3.37-1.91-4.91-5-6.04-7.26-2.66-14.51-5.46-21.47-8.81-3.35-1.61-5.61-1.33-8.31,.87-8.22,6.7-16.59,13.22-24.83,19.88-9.46,7.65-19.3,7.35-27.9-1.17-10.51-10.42-20.93-20.93-31.32-31.47-7.88-8-8.42-17.4-1.52-26.24,6.81-8.72,13.7-17.38,20.7-25.95,1.99-2.43,2.56-4.24,1.1-7.51-3.22-7.22-7.09-14.22-8.88-22.06-.76-3.34-3.21-5.04-6.73-5.37-9.45-.88-18.87-2.07-28.33-2.85C5.94,251.48,.2,245.52,.08,229.29c-.11-13.72-.09-27.45-.02-41.18,.06-12.22,6.72-19.34,18.87-20.45,9.68-.88,19.36-1.77,29.02-2.76,4.92-.5,8.26-2.37,9.81-7.92,1.82-6.54,4.8-12.84,7.92-18.92,1.86-3.62,1.18-6.06-1.13-8.89-6.42-7.87-12.75-15.82-19.03-23.8-8.7-11.04-8.4-19.36,1.27-29.28,10.05-10.3,20.2-20.5,30.48-30.57,8.21-8.04,17.83-8.34,26.82-1.19,8.48,6.75,17,13.45,25.42,20.29,2.73,2.21,5.07,2.51,8.41,.86,6.3-3.11,12.76-6.17,19.49-8.06,6.14-1.72,6.89-5.82,7.45-10.87,1.19-10.72,2.19-21.48,4.07-32.08,1.73-9.7,7.77-14.27,17.72-14.36,15.94-.15,31.88-.14,47.82-.06,8.7,.04,15.52,5.25,16.91,13.81,1.86,11.52,3.15,23.16,4.17,34.79,.4,4.6,1.87,7.1,6.42,8.61,6.9,2.29,13.67,5.11,20.23,8.26,3.36,1.61,5.65,1.22,8.39-.98,8.44-6.8,17.03-13.39,25.53-20.11,8.95-7.09,18.68-6.79,26.76,1.13,10.59,10.38,21.1,20.86,31.56,31.38,8.05,8.09,8.74,17.6,1.74,26.8-6.56,8.61-13.39,17.03-20.26,25.4-2.52,3.06-3.11,5.66-1.04,9.41,3.4,6.17,6.27,12.69,8.07,19.55,1.09,4.17,3.4,6.28,7.79,6.65,9.67,.81,19.3,2.14,28.98,2.87,14.3,1.08,20.54,7.62,20.53,22.09,0,14.83-.11,29.67-.03,44.5,.03,5.49-2.15,9.89-6,13.51-5.13,4.82-8.91,4.67-14.18-.12-3.1-2.82-6.35-5.47-10.21-8.78Z" />
    <path class="cls-1"
      d="M413.82,315.04c-.1,42.64-33.31,75.81-76.07,75.08-42.61-.72-73.54-33.73-74.29-73.83-.81-42.84,33.14-76.97,74.64-76.81,42.92,.16,75.83,32.99,75.72,75.56Zm-88.17,33.2c3.07-.18,5.02-2.42,7.03-4.43,15.51-15.47,30.98-30.98,46.46-46.48,1.25-1.25,2.5-2.51,3.69-3.82,2.71-2.99,3.47-6.27,.59-9.49-2.95-3.3-6.48-2.59-9.56-.3-2.65,1.96-4.93,4.43-7.29,6.77-12.55,12.49-25.14,24.94-37.54,37.58-2.6,2.66-4.14,2.92-6.8,.07-5.58-5.98-11.55-11.57-17.34-17.36-3.19-3.19-6.69-4.75-10.36-1.05-3.76,3.79-2.64,7.49,.87,10.97,8.02,7.94,15.96,15.97,23.96,23.93,1.72,1.71,3.47,3.46,6.27,3.61Z" />
    <path class="cls-1"
      d="M199,309.54c-14.38,0-28.76-.02-43.14,0-18.57,.03-30.76-10.07-32.64-28.54-.83-8.19-.9-16.59,.34-25,3.44-23.45,19.24-35.13,39.42-42.95,2.65-1.03,5.49-1.59,8.27-2.27,5.43-1.33,10-1.4,15.11,2.77,13.59,11.09,34.59,10.51,48.57-.74,3.14-2.53,6.01-3.31,9.67-2.68,17.12,2.93,31.85,10.13,43.18,23.7,2.38,2.85,2.48,4.43-.75,6.78-19.64,14.28-31.67,33.47-36.39,57.3-2.29,11.56-2.38,11.55-14.47,11.55-12.39,0-24.78,0-37.17,0,0,.03,0,.06,0,.1Z" />
    <path class="cls-1"
      d="M167.21,144.57c-.22-14.92,3.65-27.92,14.74-37.91,20.21-18.19,63.03-11.83,69.58,22.89,4.04,21.41,1.14,41.46-13.03,58.64-17.08,20.72-43.19,19.53-58.67-2.49-8.7-12.38-13.36-26.2-12.63-41.14Z" />
  </g>
</svg>