<?xml version="1.0" encoding="UTF-8"?>
<svg id="Layer_1" data-name="Layer 1" xmlns="http://www.w3.org/2000/svg" viewBox="0 0 775.28 531.6">
  <defs>

  </defs>
  <path class="cls-1"
    d="M229.68,0c9.08,2.76,16.07,7.64,18.65,17.48,2.28,8.67-.33,16.88-7.6,22.16-3.65,2.65-7.69,4.62-11.65,6.76-11.86,6.43-23.05,13.82-33.34,22.67-11.11,9.55-19.78,21.15-28.83,32.47-1.62,2.02-2.36,4.42-3.5,8.21,9.78-8.41,18.13-16.41,27.35-23.24,7.23-5.36,13.69-12,22.52-15.12,2.65-.94,4.81-3.17,7.3-4.62,14.93-8.66,30.91-15.06,47.27-20.18,14.17-4.43,28.44-8.68,43.22-11.18,17.81-3.02,30.89,13.1,25.19,30.53-3.01,9.22-11.15,10.86-18.45,13.38-7.39,2.55-15.1,4.23-22.84,5.68-10.79,2.02-20.67,6.84-30.85,10.81-9.71,3.78-18.71,8.65-27.37,14.6,3.94-1.28,7.88-2.56,11.82-3.83,21.7-7,43.8-7.8,66.3-4.98,12.84,1.61,25.29,4.73,37.09,9.61,14.65,6.06,23.46,19.72,13.4,34.71-5.2,7.75-14.74,12.47-28.22,6.8-20.48-8.62-41.93-8.46-63.51-6.76-2.31,.18-5.15,.02-7.18,3.07,6.95,.45,13.46,.95,19.79,2.52,9.82,2.44,19.37,5.58,28.79,9.38,11.38,4.6,20.92,11.61,29.52,19.98,6.55,6.36,12.28,13.84,15.8,22.15,4.08,9.64,8.83,19.26,9.6,30.1,.7,9.8-2.6,17.48-11.26,22.31-8.17,4.56-15.9,3.8-23.9-1.48-6.57-4.34-7.88-10.94-9.98-17.39-1.88-5.78-2.9-11.86-6.57-16.96-9.04-12.58-21.21-20.43-36.32-23.2-16.48-3.03-32.84-3.15-49.16,2.28-10.51,3.5-19.04,9.84-26.06,17.53-13.44,14.74-18.63,32.59-17.33,52.82,1.18,18.4,9.01,33.13,22.11,45.05,11.66,10.6,25.52,17.01,41.85,16.77,12.87-.19,25.88,.99,38.2-4.07,12.18-5,22.13-13.15,28.93-24.24,3.3-5.39,5.19-12,6.08-18.58,2.42-17.84,13.1-21.6,27.81-19.7,9.74,1.26,15.34,9.5,15.84,20.53,.51,11.27-3.27,21.45-6.93,31.83-3.46,9.8-9.53,18.02-16.03,25.41-5.24,5.97-11.08,12.16-19.2,15.54-6.42,2.67-11.98,7.43-18.38,10.47-9.82,4.66-19.35,10.28-29.62,13.6-24.31,7.86-49.54,10.76-75.05,11.1-12.58,.17-25.15,.5-37.52,3.06-4.64,.96-8.77,3.56-12.39,6.23-6.41,4.71-13.34,8.59-19.53,13.76-7.43,6.2-13.48,13.71-20.91,19.81-1.33,1.09-2.42,2.49-3.26,4.13-2.82,5.54-7.93,8.85-12.95,11.93-2.8,1.72-6.32,.38-9.38-.76-14.8-5.52-28.04-13.55-39.09-24.92-6.82-7.01-12.81-14.69-18.47-22.73-10.51-14.91-17.62-31.43-23.81-48.35-3.12-8.52-4.57-17.66-6.74-26.53-.16-.65-.23-1.25-.95-1.47,0-.97,0-1.94,0-2.91,6.3-4.03,12.98-7.58,18.81-12.2,7.75-6.14,15.72-12,23.01-18.76,5.75-5.34,11.55-10.85,16.02-17.02,6.65-9.19,12.53-18.92,16.15-30.23,4.53-14.16,10.16-27.99,14.23-42.35,3.84-13.53,8.6-26.71,11.1-40.73,3.51-19.64,9.04-38.92,16.06-57.67,6.13-16.38,14.99-31.35,26.62-44.28,6.34-7.05,12.57-14.32,19.94-20.56,8.88-7.51,17.83-14.78,27.29-21.6,11.6-8.36,23.95-14.57,37.54-18.59h2.91Z" />
  <path class="cls-1"
    d="M544.64,531.6c-6.21-2.24-12.62-4.51-16.12-10.54-7.46-12.86-3.53-22.14,7.18-31.12,3.49-2.93,8.02-3.86,11.88-6.13,10.79-6.35,21.05-13.3,30.62-21.47,6.08-5.19,12.19-10.6,17.04-16.6,5.87-7.27,13.47-13.85,16.1-24.41-1.9,1.32-3.46,2.04-4.55,3.2-7.04,7.51-14.79,14.44-23.05,20.31-7.47,5.3-14.43,11.55-23.19,15.2-6.3,2.62-11.6,7.62-17.89,10.28-11.95,5.07-23.46,11.33-36.05,14.75-14.67,3.98-29.13,8.81-44.23,11.07-17.32,2.58-29.89-13.18-24.5-29.92,3.39-10.54,12.1-12.63,20.67-14.83,14.41-3.7,29.15-6.11,42.95-12.06,12.27-5.3,25.25-9.1,36.57-17.82-4.25-.25-7.37,1.81-10.64,2.83-18.93,5.91-38.24,8.88-58.04,7.35-14.13-1.09-27.75-4.76-41.09-9.55-5.7-2.05-11.29-3.86-16.05-8.1-6.45-5.74-7.8-12.75-6.74-20.57,1.22-8.96,7.31-13.82,15.26-16.9,5.83-2.26,11.23-.07,16.28,2.06,14.54,6.15,29.65,7.76,45.23,7.41,8.49-.19,16.85-.79,25.18-3.11-5.56-.84-11.11-1.71-16.67-2.52-10.08-1.47-19.45-5.15-28.9-8.8-12.01-4.65-22.27-11.86-31.37-20.64-6.2-5.98-12.37-12.54-15.83-20.38-4.96-11.23-9.75-22.75-11.3-35.13-1.02-8.11,7.97-18.93,17.48-21.75,10.06-2.98,19.35,1.14,24.13,10.6,3.57,7.05,5.73,14.65,8.39,22.04,1.63,4.54,3.68,8.4,7.56,11.3,3.21,2.4,5.21,6.16,8.8,8.17,15.85,8.87,32.77,12.64,50.94,11.21,11.6-.91,22.64-3.84,32.39-9.94,16.01-10.01,27.41-24.67,30.77-43,5.6-30.56-3.35-57.31-34.49-75.6-14.08-8.27-29-8.54-44.67-8.07-14.09,.43-26.07,5.22-37.17,12.97-11.08,7.74-17.11,18.79-18.87,32.13-1.27,9.64-8.2,21.08-20.53,23.01-5.5,.86-10.37-1.26-14.64-4.33-9.43-6.79-11.76-15.91-9.36-27.22,2.28-10.76,5.66-21.2,10.48-30.81,4.8-9.57,12.5-17.44,20.94-24.37,12.39-10.16,26.37-17.4,40.93-23.79,6.33-2.78,12.53-6.18,19.22-7.6,10.32-2.19,20.62-4.64,31.15-5.81,26.5-2.95,53.17-2.3,79.74-3.68,3.44-.18,5.46-2.39,8.25-3.31,7.68-2.51,13.48-7.83,19.6-12.72,8.45-6.75,15.32-15.02,22.62-22.91,5.35-5.78,8.56-12.98,14.02-18.69,4.42-4.61,8.61-5.02,14.18-2.82,21.46,8.46,39.37,21.55,53.12,40.13,8.59,11.6,15.74,23.99,21.57,37.3,5.75,13.14,9.74,26.74,13.74,40.41,.35,1.2,1.06,2.31,1.6,3.45v3.88c-5.13,4.88-11.68,7.65-17.35,11.62-9.92,6.95-19.89,13.85-29.19,21.82-12.41,10.63-21.45,22.65-26.7,38.23-4.18,12.4-9.6,24.33-13.05,37.08-4.39,16.21-10.76,31.85-13.14,48.65-1.26,8.87-3.68,17.57-5.38,26.39-1.82,9.45-4.87,18.6-7.42,27.84-2.32,8.43-7.4,15.96-11.43,23.81-5.14,10.02-11.65,19.07-18.32,27.96-7.18,9.58-15.78,18.07-24.81,25.9-8.89,7.7-18.08,15.14-28.35,21.08-4.59,2.65-8.65,6.54-13.52,8.3-6.41,2.31-12.31,6.01-19.1,7.28h-2.91Z" />
</svg>