<?xml version="1.0" encoding="UTF-8"?>
<svg id="Layer_1" data-name="Layer 1" xmlns="http://www.w3.org/2000/svg" viewBox="0 0 267.72 456.04">
  <g>
    <path class="cls-1"
      d="M152.63,298.37c-8.6,1.05-16.97,3.33-25.48,4.74-6.1,1.01-12.05,2.61-18.12,3.69-2.09,.37-4.17,.47-6.28,1.17-3.48,1.17-4.82,3.6-5.3,6.66-.6,3.84,.7,8.3,4.83,9.44,2.07,.57,4.27,.31,6.4,.02,16.24-2.21,32.41-5.46,48.29-9.48,4.38-1.11,6.19-3.79,5.89-5.93-.41-2.91-.44-6.04-2.64-8.4-2.02-2.17-4.71-1.88-7.31-1.9" />
    <path class="cls-1"
      d="M180.26,326.54c-7.22,1.99-14.46,3.93-21.66,5.97-7.17,2.03-14.42,3.7-21.66,5.44-6.09,1.46-12.09,3.28-18.16,4.82-6.01,1.53-12.01,3.09-18.14,4.07-4.38,.7-8.64,1.81-12.44,4.11-6.43,3.9-4.73,14.64,3.23,14.56,6.28-.06,12.39-1.22,18.42-2.93,6.09-1.73,12.22-3.28,18.4-4.67,5.29-1.19,10.47-2.89,15.72-4.27,5.76-1.51,11.56-2.87,17.33-4.36,5.43-1.4,10.94-2.46,16.27-4.26,2.78-.94,5.7-1.46,8.38-2.76,3.58-1.74,5.37-5.83,4.06-9.49-1.83-5.09-3.56-6.23-9.48-6.23" />
    <path class="cls-1"
      d="M187.57,363.11c-9.13,1.72-17.91,4.77-26.85,7.19-7.59,2.05-15.12,4.33-22.71,6.38-5.35,1.44-10.63,3.17-16,4.54-3.11,.79-6.09,1.83-8.93,3.29-4.49,2.32-5.68,5.6-3.02,10.85,2.42,4.77,6.77,5.77,12.22,4.29,3.47-.94,6.86-2.19,10.3-3.21,6.76-2.02,13.47-4.25,20.33-5.9,8.74-2.1,17.29-4.85,25.97-7.15,4.49-1.19,8.87-2.82,13.28-4.3,5.06-1.69,7.82-9.8,4.56-13.77-1.43-1.75-3.78-1.91-5.92-2.18-.98-.12-1.98-.02-2.98-.02" />
    <path class="cls-1"
      d="M84.11,242.58c-8.49,1.81-14.36,10.3-20.28,15.92-7.24,6.88-14.16,14.1-20.55,21.78-6.03,7.25-11.02,15.21-15.52,23.63-3.19,5.97-5.56,12.17-8,18.34-6.15,15.53-6.07,33.76-3.52,50.04,.71,4.51,2,8.95,3.52,13.34,5.97,17.2,15.4,33.72,27.49,47.37,6.07,6.85,12.17,13.63,19.23,19.5,2.96,2.46,6.31,3.44,10.04,3.49,1.26,.02,2.53-.08,3.79,.02,7.15,.53,16.11-7.56,17.55-13.84,1.86-8.15-.34-15.33-6.17-21.39-4.69-4.88-9.6-9.53-14.18-14.53-4.41-4.82-7.58-10.36-11.04-15.77-2.34-3.66-4.42-7.44-6.19-11.4-2.23-5-3.36-10.3-4.09-15.7-.61-4.5-.59-9.02-.51-13.54,.16-10.28,2.92-19.74,8.03-28.76,6.59-11.63,15.41-21.85,24.98-31.12,4.68-4.53,9.56-8.85,14.56-13.02,4.33-3.61,10.22-6.2,13.71-10.65-.21-1.34-1.2-2.08-2.01-2.52-10.98-5.97-19.94-15.05-30.58-21.18" />
    <path class="cls-1"
      d="M189.47,214.14c4.71-3.36,8.91-7.33,13.24-11.14,19.1-16.8,36.15-38.15,45.09-62.2,7.98-21.46,10.16-47.72,1.38-69.34-2.22-5.46-4.06-11.07-6.81-16.36-6.72-12.91-15.5-24.25-25.28-34.89-6.3-6.85-13.02-15.56-22.22-18.99-10.12-3.77-21.45,1.46-26.18,11.17-3.23,6.63-1.36,12.95,2.68,18.61,2.52,3.53,5.66,6.56,8.84,9.57,18.76,17.74,35.69,40.4,34.55,67.45-1.22,29.08-23.34,52.2-44.28,70.07-4.4,3.75-9.02,7.23-13.52,10.87-1.75,1.41-1.97,2.53-.53,3.48,10.93,7.21,21.27,15.31,32.75,21.7" />
    <path class="cls-1"
      d="M20.46,62.47c-6.02,.94-9.53,3.49-12.5,8.11s-4.95,9.56-6.23,14.78c-2.63,10.76-2.08,22.16,.31,32.91,.82,3.69,1.86,7.33,3.12,10.9,13.59,38.6,45.69,67.76,79.53,90.76,33.85,23.01,70.8,41.76,101.65,68.65,19.7,17.17,37.43,39.34,39.54,65.38,.69,8.57-.34,17.31,1.42,25.73s7.34,16.92,15.8,18.47c7.36,1.34,14.88-3.14,18.96-9.4,4.08-6.27,5.3-13.97,5.58-21.44,1.21-32.65-13.83-64.31-35.21-89.02-21.38-24.71-48.77-43.38-76.37-60.88-27.6-17.49-55.93-34.24-80.27-56.04-17.84-15.98-34.2-36.7-34.41-60.65-.07-7.7,1.56-15.49,.03-23.04-1.94-9.6-12.44-16.29-20.69-15.2" />
  </g>
  <g>
    <path class="cls-1"
      d="M146.34,99.65s-5.51-15.17-16.98-12.07c-11.56,3.13-27.53,6.51-33.98,17.83-3.91,6.85-.69,13.96,2.19,20.51,2.47,5.62,5.49,11.05,9.35,15.83,7.76,9.61,18.9,15.1,31.29,11.9,7.4-1.91,15.21-5.63,20.77-10.9,2.43-2.3,4.49-5.08,5.44-8.33,.9-3.08,1.23-8.63-1.64-10.71-7.44-5.42-13.57-15.42-16.45-24.07Z" />
    <path class="cls-1"
      d="M163.45,116.32s-12.38-21.69,9.44-34.52c0,0,8.36-4.33,17.04,3.45,0,0,4.06,3.03-10.64,14.7,0,0-13.34,10.42-15.84,16.36Z" />
    <path class="cls-1"
      d="M142.82,83s-21.42,.33-16.04-26.96c0,0,3.21-16.21,12.29-14.83,9.08,1.38,5.86,15.47,5.32,18.13,0,0-4.45,16.94-1.57,23.66Z" />
    <path class="cls-1"
      d="M122.41,83.11s-20.66,12.26-24.55-19.74c0,0-1.59-19.78,8.65-19.99,0,0,7.54-1.95,8.07,20.01,0,0-.19,15.26,7.83,19.72Z" />
    <path class="cls-1"
      d="M98.18,95s-15.95,3.99-25.15-15.63c0,0-6.91-14.79,.45-18.72,0,0,8.66-4.71,15.58,13.01,6.92,17.72,6.55,19.26,9.11,21.34Z" />
    <path class="cls-1" d="M89.03,103.01s-31.06-17.81-34.97-6.9c0,0-3.7,9.64,18.61,14.74,0,0,12.44,3.41,16.37-7.85Z" />
  </g>
</svg>