<?xml version="1.0" encoding="UTF-8"?>
<svg id="Layer_1" data-name="Layer 1" xmlns="http://www.w3.org/2000/svg" viewBox="0 0 368.64 394.23">
  <g id="game">
    <path class="cls-1"
      d="M195.01,172.03H35.69c-15.02,0-27.19,12.17-27.19,27.19v159.32c0,15.02,12.17,27.19,27.19,27.19H195.01c15.02,0,27.19-12.17,27.19-27.19V199.22c0-15.02-12.17-27.19-27.19-27.19ZM63.69,248.29c-9.52,0-17.23-7.72-17.23-17.23s7.72-17.23,17.23-17.23,17.23,7.72,17.23,17.23-7.72,17.23-17.23,17.23Zm51.66,53.26c-9.52,0-17.23-7.72-17.23-17.23s7.72-17.23,17.23-17.23,17.23,7.72,17.23,17.23-7.72,17.23-17.23,17.23Zm55.83,49.83c-9.52,0-17.23-7.72-17.23-17.23s7.72-17.23,17.23-17.23,17.23,7.72,17.23,17.23-7.72,17.23-17.23,17.23Z" />
    <path class="cls-1"
      d="M332.95,8.5H173.63c-15.02,0-27.19,12.17-27.19,27.19V195.01c0,15.02,12.17,27.19,27.19,27.19h159.32c15.02,0,27.19-12.17,27.19-27.19V35.69c0-15.02-12.17-27.19-27.19-27.19ZM201.63,189.27c-9.52,0-17.23-7.72-17.23-17.23s7.72-17.23,17.23-17.23,17.23,7.72,17.23,17.23-7.72,17.23-17.23,17.23Zm0-104.51c-9.52,0-17.23-7.72-17.23-17.23s7.72-17.23,17.23-17.23,17.23,7.72,17.23,17.23-7.72,17.23-17.23,17.23Zm51.66,53.26c-9.52,0-17.23-7.72-17.23-17.23s7.72-17.23,17.23-17.23,17.23,7.72,17.23,17.23-7.72,17.23-17.23,17.23Zm55.83,49.83c-9.52,0-17.23-7.72-17.23-17.23s7.72-17.23,17.23-17.23,17.23,7.72,17.23,17.23-7.72,17.23-17.23,17.23Zm0-104.51c-9.52,0-17.23-7.72-17.23-17.23s7.72-17.23,17.23-17.23,17.23,7.72,17.23,17.23-7.72,17.23-17.23,17.23Z" />
  </g>
</svg>