<?xml version="1.0" encoding="UTF-8"?>
<svg id="Layer_1" data-name="Layer 1" xmlns="http://www.w3.org/2000/svg" viewBox="0 0 459.3 360.13">
  <defs>

  </defs>
  <path class="cls-1"
    d="M33.28,79.84c15.98-2.78,31.11-3.74,46.24-4.51,11.57-.59,14.14-3.02,14.16-14.77,.02-10.15,2.75-20.03,2.85-30.21,.04-4.63,4.27-2.9,6.62-2.31,11.03,2.8,22.04,5.71,32.91,9.08,5.15,1.6,10.45,.64,15.62,2.11,2.99,.85,5.44-1.81,7.29-4.57,7.12-10.61,14.52-21.03,21.63-31.65,1.84-2.75,2.92-3.32,6.05-1.18,12.07,8.24,24.53,15.92,36.72,23.99,4.39,2.9,8.25,2.1,12.19-.59,9.54-6.52,18.93-13.25,29.42-18.25,4.14-1.97,7.31-9.12,11.52-6.34,2.72,1.8,5.37,6.97,7.43,10.95,4.32,8.33,11.45,14.78,15.2,23.46,1.54,3.57,4.35,3.88,8.1,3.83,14.78-.22,28.3-5.76,42.27-9.33,9.82-2.51,9.51-2.7,11.99,7.09,2.24,8.81,2.15,17.85,3.45,26.74,1.3,8.84,3.32,11.14,12.59,11.82,12.51,.92,25.03,1.76,37.54,2.74,2.83,.22,5.62,.88,9.16,1.45-3.82,10.03-7.5,19.7-11.18,29.36-.08,.2-.21,.39-.3,.59-5.11,11.27-3.46,16.24,8.07,19.52,5.37,1.53,10.29,3.69,15.11,6.15,6.1,3.11,12.46,5.39,19,7.12,5.6,1.48,4.35,3.18,1.02,6.11-8.62,7.57-17.2,15.2-25.49,23.13-6.98,6.67-6.26,13.02,1.6,18.93,6.92,5.2,13.15,11.16,18.39,18.04,2.37,3.12,7.38,3.11,8.86,7.97-14.63,3.74-27.36,11.55-41.4,16.26-8,2.68-9.58,6.73-6.59,14.83,3.84,10.41,7.94,20.74,12.38,30.9,1.88,4.3,.51,4.95-3.33,4.86-15-.38-29.92,.26-44.81,2.41-7.68,1.11-9.55,2.56-10.5,10.48-1.28,10.66-2.97,21.28-4.24,31.94-.48,4.06-2,5.15-6,4-14.7-4.22-29.45-8.19-44.53-11.02-5.82-1.09-9.13,.98-11.68,4.73-7.33,10.8-14.17,21.93-21.16,32.97-1.72,2.72-3.34,1.03-4.93,.02-11.17-7.08-22.68-13.69-33.38-21.43-10.25-7.42-12.27-5.62-20.8,.51-10.64,7.65-22.5,13.32-32.8,21.41-2.68,2.1-3.5-.48-4.49-1.9-6.85-9.81-13.63-19.66-20.36-29.55-5.58-8.2-5.9-7.47-15.65-5.82-15.16,2.56-29.8,6.94-44.59,10.81-3.3,.86-4.08-.52-4.02-3.15,.23-11.04-3-21.77-2.83-32.84,.12-7.74-2.36-10.03-9.87-11.11-15.1-2.17-30.31-2.71-45.53-2.39-4.92,.1-5.96-1.24-3.57-5.58,5.4-9.79,8.37-20.59,12.47-30.91,2.9-7.29,.35-13.1-7.24-14.71-4.41-.94-8.33-2.64-12.16-4.56-8.07-4.04-16.61-6.85-24.99-10.06-3.82-1.46-3.1-2.72-.83-4.86,8.75-8.23,17.46-16.51,26.19-24.77,6.7-6.34,6.38-11.2-.79-16.86-8.65-6.84-15.59-15.58-24.53-22.17-3.4-2.51-3.23-5.89,1.52-6.87,12.12-2.5,22.15-10.3,34.15-13.06,3.78-.87,6.37-3.82,9.34-6.06,2.97-2.22,1.3-4.8,.28-7.1-5.18-11.74-8.01-24.37-14.76-35.8Zm233.7,64.37c2.2,0,4.41-.06,6.61,.01,13.22,.43,23.37-5.32,29.82-16.49,6.23-10.77,7.64-19.9-3.38-34.65-2.58-3.44-4.92-6.39-4-11.56,1.2-6.76-7.44-21.48-12.44-23.37-6.83-2.58-13.92-3.62-21.19-3.8-12.59-.31-14.73,1.77-14.58,14.25,.23,19.17,.45,38.35,.59,57.53,.13,17.45-2.65,18.37,18.56,18.09Zm-92.29,26.33c7.84,.7,8.78-5.57,10.14-10.24,3.19-10.92,8.8-20.81,12.65-31.47,4.43-12.28,9.62-24.39,14.76-36.45,2.39-5.62-1.13-7.59-4.73-9.82-3.96-2.45-5.77,1.03-7.32,3.34-2.14,3.17-4.17,6.32-4.72,10.58-1.36,10.46-5.01,13.18-15.35,13.15-2.42,0-4.89-.29-7.26,.05-7.25,1.04-11.72-.9-13.49-8.95-.84-3.8-3.05-7.67-4.52-11.54-1.54-4.08-3.87-7.8-8.47-5.75-3.87,1.73-7.19,5-4.3,10.58,1.96,3.8,2.61,8.28,4.05,12.29,7.24,20.12,15.17,39.98,22.66,60,1.21,3.23,2.8,4.82,5.92,4.24Zm81.88,57.94c0,25.2,18.32,44,41.46,44.13,11.13,.06,19.44-6.21,28.14-11.54,3.91-2.4,2.37-9.19-1.77-11.3-5.68-2.89-9.04,1.54-12.97,3.84-11.57,6.77-24.68,5.68-33.49-3.04-9.69-9.6-11.43-23.16-4.49-34.92,6.85-11.6,21.22-17.72,32.01-13.15,4.38,1.86,8.69,4.18,12.37,7.41,2.74,2.41,5.08,1.83,7.14-1.15,3.05-4.4,2.54-8.26-1.51-11.63-4.74-3.94-9.81-7.11-16.24-7.7-9.68-.89-20.04-2.12-28.44,2.41-14.42,7.77-24.44,19.53-22.2,36.64Zm-79.52,33.9c.18,4.81-.63,9.32,5.49,10.19,5.62,.8,8.63-1.1,8.78-7.01,.06-2.26,1.64-3.97,2.57-5.93,3.52-7.41,10.62-11.84,14.76-18.89,9.19-15.63,5.73-29.76-9.42-35.76-10.96-4.34-20.07-.35-29.1,5.35-3.05,1.93-4.48,3.96-3.07,7.54,1.51,3.83,4.31,4.53,7.92,3.6,4.85-1.25,9.64-2.94,14.56-3.63,6.58-.92,11.75,3.86,9.57,8.86-2.46,5.63-5.27,11.02-9.51,16-5.05,5.93-13.51,10.49-12.55,19.67ZM359.16,88.45c-2.29,0-3.61,.02-4.93,0-5.65-.12-10.98,1.25-15.43,4.64-3.99,3.03-4.35,7.07-1.92,11.62,2.74,5.14,5.77,2.64,9,.86,3.65-2.01,7.36-3.84,11.7-3.89,7.17-.08,11.42,5.11,8.63,11.62-2.63,6.14-6.59,11.66-11.43,16.38-5.91,5.76-10.91,11.88-9.48,20.95,.66,4.22,3.11,7.12,7.28,7.19,4.5,.07,6.62-2.79,5.99-7.44-.38-2.76,.16-5.54,2.31-7.25,4.84-3.86,7.56-9.49,11.9-13.69,8.72-8.43,12.41-32.01-3.07-39.25-3.92-1.83-7.65-1.39-10.53-1.74ZM93.88,151.62c-7.5,.57-14.47,2.35-20.41,7.63-2.94,2.61-2.86,5.14-1.99,8.19,1.08,3.8,4.28,3.06,7.07,3.13,3.94,.09,6.87-2.68,10.42-3.74,4.72-1.41,9.32-1.96,12.55,2.47,3.21,4.4,1.24,8.54-1.55,12.56-3.9,5.62-8.64,10.53-12.88,15.85-4.61,5.77-7.75,12.2-4.79,19.97,1.64,4.29,5.27,3.02,8.4,3.22,3.49,.22,2.95-2.37,3.13-4.5,.41-4.78,2.47-8.61,5.87-12.11,4.54-4.68,9.13-9.51,12.58-14.98,5.37-8.51,5.47-18.93,1.5-27.07-3.14-6.44-10.92-11.37-19.89-10.62Zm96.55,138.33c-.37-4.59-3.75-6.6-7.51-6.54-3.88,.07-6.46,3.54-6.5,7.15-.04,3.85,2.81,6.42,6.97,6.25,4.17-.17,7.21-1.91,7.03-6.86Zm-96.75-50.65c.31-4.95-2.28-7.71-6.5-7.61-4.31,.1-6.45,4.07-6.75,7.7-.31,3.87,2.92,5.28,6.66,5.38,4.1,.11,7.1-.76,6.58-5.48Zm257.8-58.07c3.56-.02,6.88-1.53,7.03-6.62,.16-5.39-4.93-5.53-7.85-6.04-3.15-.54-5.79,2.16-5.63,6.33,.15,3.8,1.06,6.51,6.45,6.33Z" />
  <path class="cls-1"
    d="M261.9,113.99c.03-16.59,.03-16.52,16.53-16.24,5.44,.09,9.76,1.49,12.39,6.79,2.69,5.41,3.68,10.14,.13,15.98-4.15,6.82-9.26,9.32-17.12,9.42-11.86,.15-11.86,.7-11.93-11.33,0-1.54,0-3.08,0-4.62Z" />
  <path class="cls-1"
    d="M272.1,83.75c-10.36-.18-9.9-.2-10.35-9.54-.39-7.98,4.99-5.39,8.74-5.5,6.25-.18,11.97,5.51,11.16,11.62-.94,7.04-7.05,1.19-9.55,3.41Z" />
  <path class="cls-1"
    d="M177.01,122.93c1.31,0,2.62,.06,3.93-.01,3.2-.17,4.47,.66,2.72,4.05-1.69,3.26-2.78,6.83-4.4,10.13-.8,1.64-1.31,4.26-3.67,4.01-1.9-.2-1.88-2.6-2.47-4.17-.9-2.44-1.71-4.93-2.82-7.27-3.13-6.54-3.1-6.66,4.09-6.73,.87,0,1.75,0,2.62-.01Z" />
</svg>