<?xml version="1.0" encoding="UTF-8"?>
<svg id="Layer_1" data-name="Layer 1" xmlns="http://www.w3.org/2000/svg" viewBox="0 0 365.48 467.17">
  <defs>

  </defs>
  <g id="parent">
    <path class="cls-1"
      d="M184.41,138.61c2.49-4.9,4.53-8.86,6.53-12.84,3.82-7.6,10.08-11.36,18.46-11.38,27.67-.06,55.33-.05,83,.02,8.65,.02,14.97,4.05,18.6,11.91,17.65,38.19,35.26,76.4,52.84,114.62,3.62,7.88,1.05,15.9-5.97,19.19-7.46,3.5-15.12,.53-18.9-7.61-9.72-20.95-19.32-41.97-28.98-62.95-.19-.41-.5-.75-1.57-.9,1.34,5.37,2.62,10.76,4.02,16.12,11.79,45.42,23.57,90.84,35.45,136.23,.96,3.66,.4,4.83-3.67,4.71-10.49-.29-21,.12-31.49-.23-4.71-.16-5.81,1.49-5.78,5.93,.17,28.83,.1,57.66,.08,86.5,0,18.72-10.79,29.3-29.59,29.17-14-.1-28-.19-42-.04-3.49,.04-4.86-.54-4.86-4.54,.11-52.33,.05-104.66-.12-156.99,0-3.13,1.67-4.95,3.32-6.93,11.96-14.31,24-28.56,36-42.84,7.65-9.11,4.92-20.53-5.68-23.62-6-1.75-10.8,.41-14.65,4.98-10.95,12.98-21.91,25.97-32.74,39.06-1.86,2.24-3.67,3.23-6.69,3.2-17.33-.18-34.66-.18-52-.03-2.83,.02-4.54-.88-6.29-3-10.82-13.1-21.65-26.2-32.73-39.08-7.92-9.21-20.54-6.98-24.24,4.02-1.72,5.09-.3,9.52,2.99,13.46,10.87,13.06,21.66,26.19,32.77,39.04,3.24,3.74,4.74,7.38,4.72,12.42-.18,52-.16,104-.01,155.99,.01,4.02-1.12,5.04-4.98,4.97-13-.23-26-.02-39-.17-16.33-.19-27.14-11.14-27.14-27.46-.02-83.5,0-166.99,0-250.49,0-2.94,0-5.88,0-9.52-2.57,1.28-2.87,3.23-3.58,4.67-11.08,22.55-22.12,45.12-33.05,67.74-2.3,4.77-5.35,8.5-10.73,9.54-5.06,.98-9.7-.09-13.12-4.22-3.55-4.28-4.82-9.22-2.41-14.43,4.48-9.65,9.16-19.21,13.85-28.77,14.06-28.68,28.28-57.28,42.19-86.03,4.49-9.29,11.32-13.76,21.67-13.69,26.33,.18,52.66,.18,79,.04,10.33-.06,17.51,4.17,21.52,13.77,1.33,3.18,2.94,6.25,4.95,10.47Zm-1.48,129.99c23.72,0,43.85-18.99,43.98-44.31,.12-23.77-20.72-43.9-44.27-43.68-24.05,.22-43.75,20.22-43.57,44.24,.18,24.28,19.93,43.99,43.86,43.75Z" />
    <path class="cls-1"
      d="M115.34,104.95c-29.2-.12-52.2-23.57-52.09-53.09C63.36,23.24,86.79,.06,115.64,.02c29.92-.04,52.69,23.4,52.58,54.12-.1,27.96-24,50.93-52.89,50.81Z" />
    <path class="cls-1"
      d="M195.74,52.45C195.72,23.37,218.95,0,247.89,0c29.38,0,52.68,23.14,52.75,52.43,.07,29.16-23.3,52.42-52.72,52.48-28.91,.05-52.18-23.33-52.19-52.45Z" />
    <path class="cls-1"
      d="M187.82,429.54c0,11.14-.08,22.28,.06,33.42,.03,2.78-.22,4.7-3.65,3.98-2.53-.54-6.39,2-6.31-3.88,.28-22.44,.28-44.89,.02-67.33-.06-5.08,2.93-3.86,5.7-4.13,3.14-.31,4.31,.56,4.23,4.04-.25,11.3-.1,22.61-.1,33.92h.06Z" />
  </g>
</svg>