<?xml version="1.0" encoding="UTF-8"?>
<svg id="Layer_1" data-name="Layer 1" xmlns="http://www.w3.org/2000/svg" viewBox="0 0 400.28 400.23">
  <defs>
    <style>
      .cls-1 {
        fill: #153440;
      }
    </style>
  </defs>
  <g id="pro">
    <path class="cls-1" d="M400.28,200.47c0,61.89,0,123.77,0,185.66,0,10.79-3.68,14.28-14.55,14.1-7.85-.13-15.72-.36-23.56-.09-6.48,.22-10.48-2.78-13.02-8.36-4.67-10.27-9.52-20.47-13.94-30.84-3.55-8.32-9.56-11.59-18.47-11.52-20.48,.15-41,2.22-61.45,.02-19.57-2.1-29.8-17.09-29.22-34.25,.21-6.25-1.11-11.02-4.89-15.79-10.66-13.45-8.34-26.79,5.96-36.03,3.06-1.97,6.23-3.77,9.2-5.87,3.18-2.25,8.97-3.44,8.7-7.14-.2-2.76-6.22-3.43-9.74-4.8-6.94-2.7-13.96-5.22-20.9-7.93-10.82-4.23-16.05-14.05-13.68-25.3,1.38-6.53,2.72-13.07,3.92-19.64,1.49-8.19-1.67-12.37-9.85-13.46-6.25-.83-12.52-1.55-18.71-2.7-16.7-3.08-23.01-16.55-14.49-31.24,12.87-22.19,25.31-44.67,39.16-66.23,11.82-18.39,13.81-37.57,9.49-58.2-.55-2.61-.94-5.28-1.09-7.94-.45-7.72,4.25-12.75,12-12.87,6.32-.1,12.65-.03,18.97-.03,48.67,0,97.33-.01,146-.02,10.15,0,14.16,4.01,14.16,14.23,0,62.08,0,124.16,0,186.24Z"/>
    <path class="cls-1" d="M0,259.44c.97-39.91,14.78-75.58,43.32-105.25,5.75-5.98,12.77-6.62,17.67-1.83,5.18,5.07,4.64,11.87-1.33,18.17-24.45,25.81-36.82,56.67-36.3,92.06,.49,33.16,12.24,62.32,34.96,86.81,7.17,7.72,8.08,14.4,2.78,19.47-5.88,5.62-12.01,4.6-19.64-3.7C14.29,335.58,.63,300.62,0,259.44Z"/>
    <path class="cls-1" d="M96.85,336.91c-3.36,.17-5.93-1.45-8.11-3.7-22.36-23.07-32.3-50.74-29.37-82.63,2.19-23.8,11.77-44.56,28.53-61.82,3.23-3.33,6.94-5.49,11.77-4.23,9.35,2.45,11.96,12.81,4.93,20.32-10.16,10.86-17.41,23.32-20.49,37.88-5.69,26.84,.5,50.75,18.52,71.52,1.38,1.59,2.94,3.05,4.11,4.78,2.59,3.82,2.76,7.9,.5,11.93-2.25,4.02-5.85,5.88-10.4,5.96Z"/>
    <path class="cls-1" d="M117.56,259.14c.71-11.39,4.53-23.16,13.34-32.98,5.78-6.45,12.75-7.44,18.01-2.65,5.4,4.91,5.27,10.99-.37,17.75-8.62,10.34-9.9,23.7-3.2,34.6,1.19,1.94,2.81,3.62,4.23,5.41,4.59,5.78,4.35,11.75-.65,16.38-4.99,4.61-11.58,4.17-16.82-1.13-8.7-8.79-14.46-23-14.54-37.38Z"/>
  </g>
</svg>