<?xml version="1.0" encoding="UTF-8"?>
<svg id="Layer_1" data-name="Layer 1" xmlns="http://www.w3.org/2000/svg" viewBox="0 0 464.96 375.14">
  <defs>
    <style>
      .cls-1 {
        fill: inherit;
        stroke-width: 23px;
      }

      .cls-1,
      .cls-2 {
        stroke: #153440;
        stroke-miterlimit: 10;
      }

      .cls-2 {
        fill: transparent;
        stroke-width: 17px;
      }

      */
    </style>
  </defs>
  <g id="video">
    <rect class="cls-1" x="11.5" y="11.5" width="441.96" height="286.47" rx="14.94" ry="14.94" />
    <path class="cls-1"
      d="M298.43,140.82c8.22,4.74,8.22,16.61,0,21.35l-48.78,28.17-48.78,28.17c-8.22,4.74-18.49-1.19-18.49-10.68v-56.33s0-56.33,0-56.33c0-9.49,10.27-15.42,18.49-10.68l48.78,28.17,48.78,28.17Z" />
    <path class="cls-2"
      d="M446.84,342.65H103.42c-.96-11.33-10.45-20.22-22.02-20.22s-21.07,8.9-22.02,20.22H16.12c-.56,0-1.02,.46-1.02,1.02s.46,1.02,1.02,1.02H59.29c.08,12.14,9.95,21.95,22.11,21.95s22.02-9.81,22.11-21.95H446.84c.56,0,1.02-.46,1.02-1.02s-.46-1.02-1.02-1.02Z" />
  </g>
</svg>