<?xml version="1.0" encoding="UTF-8"?>
<svg id="Layer_1" data-name="Layer 1" xmlns="http://www.w3.org/2000/svg" viewBox="0 0 826.44 608.5">
  <defs>
    <style>
      .cls-1 {
        fill: #d37152;
      }

      .cls-2 {
        fill: #153440;
      }

      .cls-3 {
        fill: #75bab2;
      }
    </style>
  </defs>
  <g>
    <path class="cls-1" d="M45.21,608.5c-4.29-.3-7.85-1.49-10.89-3.98-5.82-4.78-9.14-11.17-11.13-18.24-1.32-4.7,.69-8.44,4.53-11.23,5.07-3.67,10.96-5.31,16.99-6.25,4.05-.63,6.86,1.94,8.39,5.34,2.67,5.96,5.65,11.57,10.56,16.09,2.31,2.13,1.76,6.23-.88,9.41-4.64,5.59-10.85,8.12-17.57,8.85Z"/>
    <path class="cls-1" d="M25.2,553.5c-.07-2.57,.26-5.08,1.51-7.36,.9-1.64,2.29-2.81,4.25-2.71,1.88,.1,2.8,1.56,3.46,3.13,1.45,3.46,1.33,7.19,1.74,10.82,.32,2.81,.72,5.56,2.63,7.77,1.49,1.71,.51,2.34-1.02,2.94-3.54,1.39-7.48-.02-9.79-3.71-2.08-3.31-2.75-7.03-2.78-10.89Z"/>
    <path class="cls-1" d="M41.35,554.6c.18-3.17,1.13-6.68,3.15-9.84,1.21-1.89,2.95-2.8,5.17-2.36,2.08,.41,3.09,1.94,3.67,3.9,.73,2.44,.07,4.79-.37,7.13-.7,3.73-1.64,7.43-1.26,11.26,.22,2.26-.78,2.59-2.7,2.14-4.87-1.15-7.83-5.59-7.67-12.23Z"/>
    <path class="cls-1" d="M61.09,578.55c-.11-5.71,2.37-9.47,6.49-12.28,3.04-2.07,6.16-1.88,9.33-.23,2.77,1.45,3.29,3.39,1.26,5.79-1.22,1.44-2.54,2.84-4,4.03-3.15,2.56-6.23,5.2-8.84,8.31-1.63,1.94-2.6,1.65-3.33-.58-.59-1.81-1.08-3.65-.91-5.04Z"/>
    <path class="cls-1" d="M9.27,558.21c-.03-2.03,.52-3.79,2.49-4.74,1.98-.95,3.74-.22,5.26,1.06,2.41,2.03,3.54,4.87,4.61,7.73,1.1,2.96,2.08,5.99,3.41,8.85,1.2,2.58,.29,3.1-2.12,2.95-6.99-.43-13.57-8.04-13.65-15.86Z"/>
    <path class="cls-1" d="M13.4,583.31c-3.93-.08-7.48-1.41-10.68-3.58-2-1.35-3.43-3.37-2.34-5.86,1.03-2.35,3.32-2.45,5.59-2.08,4.19,.69,8.01,2.44,11.79,4.25,1.2,.57,2.94,.93,2.93,2.63-.02,1.8-1.46,2.86-2.87,3.79-1.35,.89-2.88,.9-4.42,.86Z"/>
  </g>
  <g>
    <path class="cls-2" d="M124.61,547.95c-4.29-.3-7.85-1.49-10.89-3.98-5.82-4.78-9.14-11.17-11.13-18.24-1.32-4.7,.69-8.44,4.53-11.23,5.07-3.67,10.96-5.31,16.99-6.25,4.05-.63,6.86,1.94,8.39,5.34,2.67,5.96,5.65,11.57,10.56,16.09,2.31,2.13,1.76,6.23-.88,9.41-4.64,5.59-10.85,8.12-17.57,8.85Z"/>
    <path class="cls-2" d="M104.6,492.95c-.07-2.57,.26-5.08,1.51-7.36,.9-1.64,2.29-2.81,4.25-2.71,1.88,.1,2.8,1.56,3.46,3.13,1.45,3.46,1.33,7.19,1.74,10.82,.32,2.81,.72,5.56,2.63,7.77,1.49,1.71,.51,2.34-1.02,2.94-3.54,1.39-7.48-.02-9.79-3.71-2.08-3.31-2.75-7.03-2.78-10.89Z"/>
    <path class="cls-2" d="M120.75,494.06c.18-3.17,1.13-6.68,3.15-9.84,1.21-1.89,2.95-2.8,5.17-2.36,2.08,.41,3.09,1.94,3.67,3.9,.73,2.44,.07,4.79-.37,7.13-.7,3.73-1.64,7.43-1.26,11.26,.22,2.26-.78,2.59-2.7,2.14-4.87-1.15-7.83-5.59-7.67-12.23Z"/>
    <path class="cls-2" d="M140.49,518c-.11-5.71,2.37-9.47,6.49-12.28,3.04-2.07,6.16-1.88,9.33-.23,2.77,1.45,3.29,3.39,1.26,5.79-1.22,1.44-2.54,2.84-4,4.03-3.15,2.56-6.23,5.2-8.84,8.31-1.63,1.94-2.6,1.65-3.33-.58-.59-1.81-1.08-3.65-.91-5.04Z"/>
    <path class="cls-2" d="M88.67,497.67c-.03-2.03,.52-3.79,2.49-4.74,1.98-.95,3.74-.22,5.26,1.06,2.41,2.03,3.54,4.87,4.61,7.73,1.1,2.96,2.08,5.99,3.41,8.85,1.2,2.58,.29,3.1-2.12,2.95-6.99-.43-13.57-8.04-13.65-15.86Z"/>
    <path class="cls-2" d="M92.8,522.77c-3.93-.08-7.48-1.41-10.68-3.58-2-1.35-3.43-3.37-2.34-5.86,1.03-2.35,3.32-2.45,5.59-2.08,4.19,.69,8.01,2.44,11.79,4.25,1.2,.57,2.94,.93,2.93,2.63-.02,1.8-1.46,2.86-2.87,3.79-1.35,.89-2.88,.9-4.42,.86Z"/>
  </g>
  <g>
    <path class="cls-3" d="M212.12,608.5c-4.29-.3-7.85-1.49-10.89-3.98-5.82-4.78-9.14-11.17-11.13-18.24-1.32-4.7,.69-8.44,4.53-11.23,5.07-3.67,10.96-5.31,16.99-6.25,4.05-.63,6.86,1.94,8.39,5.34,2.67,5.96,5.65,11.57,10.56,16.09,2.31,2.13,1.76,6.23-.88,9.41-4.64,5.59-10.85,8.12-17.57,8.85Z"/>
    <path class="cls-3" d="M192.11,553.5c-.07-2.57,.26-5.08,1.51-7.36,.9-1.64,2.29-2.81,4.25-2.71,1.88,.1,2.8,1.56,3.46,3.13,1.45,3.46,1.33,7.19,1.74,10.82,.32,2.81,.72,5.56,2.63,7.77,1.49,1.71,.51,2.34-1.02,2.94-3.54,1.39-7.48-.02-9.79-3.71-2.08-3.31-2.75-7.03-2.78-10.89Z"/>
    <path class="cls-3" d="M208.26,554.6c.18-3.17,1.13-6.68,3.15-9.84,1.21-1.89,2.95-2.8,5.17-2.36,2.08,.41,3.09,1.94,3.67,3.9,.73,2.44,.07,4.79-.37,7.13-.7,3.73-1.64,7.43-1.26,11.26,.22,2.26-.78,2.59-2.7,2.14-4.87-1.15-7.83-5.59-7.67-12.23Z"/>
    <path class="cls-3" d="M228,578.55c-.11-5.71,2.37-9.47,6.49-12.28,3.04-2.07,6.16-1.88,9.33-.23,2.77,1.45,3.29,3.39,1.26,5.79-1.22,1.44-2.54,2.84-4,4.03-3.15,2.56-6.23,5.2-8.84,8.31-1.63,1.94-2.6,1.65-3.33-.58-.59-1.81-1.08-3.65-.91-5.04Z"/>
    <path class="cls-3" d="M176.18,558.21c-.03-2.03,.52-3.79,2.49-4.74,1.98-.95,3.74-.22,5.26,1.06,2.41,2.03,3.54,4.87,4.61,7.73,1.1,2.96,2.08,5.99,3.41,8.85,1.2,2.58,.29,3.1-2.12,2.95-6.99-.43-13.57-8.04-13.65-15.86Z"/>
    <path class="cls-3" d="M180.31,583.31c-3.93-.08-7.48-1.41-10.68-3.58-2-1.35-3.43-3.37-2.34-5.86,1.03-2.35,3.32-2.45,5.59-2.08,4.19,.69,8.01,2.44,11.79,4.25,1.2,.57,2.94,.93,2.93,2.63-.02,1.8-1.46,2.86-2.87,3.79-1.35,.89-2.88,.9-4.42,.86Z"/>
  </g>
  <g>
    <path class="cls-2" d="M291.52,547.95c-4.29-.3-7.85-1.49-10.89-3.98-5.82-4.78-9.14-11.17-11.13-18.24-1.32-4.7,.69-8.44,4.53-11.23,5.07-3.67,10.96-5.31,16.99-6.25,4.05-.63,6.86,1.94,8.39,5.34,2.67,5.96,5.65,11.57,10.56,16.09,2.31,2.13,1.76,6.23-.88,9.41-4.64,5.59-10.85,8.12-17.57,8.85Z"/>
    <path class="cls-2" d="M271.51,492.95c-.07-2.57,.26-5.08,1.51-7.36,.9-1.64,2.29-2.81,4.25-2.71,1.88,.1,2.8,1.56,3.46,3.13,1.45,3.46,1.33,7.19,1.74,10.82,.32,2.81,.72,5.56,2.63,7.77,1.49,1.71,.51,2.34-1.02,2.94-3.54,1.39-7.48-.02-9.79-3.71-2.08-3.31-2.75-7.03-2.78-10.89Z"/>
    <path class="cls-2" d="M287.66,494.06c.18-3.17,1.13-6.68,3.15-9.84,1.21-1.89,2.95-2.8,5.17-2.36,2.08,.41,3.09,1.94,3.67,3.9,.73,2.44,.07,4.79-.37,7.13-.7,3.73-1.64,7.43-1.26,11.26,.22,2.26-.78,2.59-2.7,2.14-4.87-1.15-7.83-5.59-7.67-12.23Z"/>
    <path class="cls-2" d="M307.4,518c-.11-5.71,2.37-9.47,6.49-12.28,3.04-2.07,6.16-1.88,9.33-.23,2.77,1.45,3.29,3.39,1.26,5.79-1.22,1.44-2.54,2.84-4,4.03-3.15,2.56-6.23,5.2-8.84,8.31-1.63,1.94-2.6,1.65-3.33-.58-.59-1.81-1.08-3.65-.91-5.04Z"/>
    <path class="cls-2" d="M255.58,497.67c-.03-2.03,.52-3.79,2.49-4.74,1.98-.95,3.74-.22,5.26,1.06,2.41,2.03,3.54,4.87,4.61,7.73,1.1,2.96,2.08,5.99,3.41,8.85,1.2,2.58,.29,3.1-2.12,2.95-6.99-.43-13.57-8.04-13.65-15.86Z"/>
    <path class="cls-2" d="M259.71,522.77c-3.93-.08-7.48-1.41-10.68-3.58-2-1.35-3.43-3.37-2.34-5.86,1.03-2.35,3.32-2.45,5.59-2.08,4.19,.69,8.01,2.44,11.79,4.25,1.2,.57,2.94,.93,2.93,2.63-.02,1.8-1.46,2.86-2.87,3.79-1.35,.89-2.88,.9-4.42,.86Z"/>
  </g>
  <g>
    <path class="cls-1" d="M379.03,608.5c-4.29-.3-7.85-1.49-10.89-3.98-5.82-4.78-9.14-11.17-11.13-18.24-1.32-4.7,.69-8.44,4.53-11.23,5.07-3.67,10.96-5.31,16.99-6.25,4.05-.63,6.86,1.94,8.39,5.34,2.67,5.96,5.65,11.57,10.56,16.09,2.31,2.13,1.76,6.23-.88,9.41-4.64,5.59-10.85,8.12-17.57,8.85Z"/>
    <path class="cls-1" d="M359.02,553.5c-.07-2.57,.26-5.08,1.51-7.36,.9-1.64,2.29-2.81,4.25-2.71,1.88,.1,2.8,1.56,3.46,3.13,1.45,3.46,1.33,7.19,1.74,10.82,.32,2.81,.72,5.56,2.63,7.77,1.49,1.71,.51,2.34-1.02,2.94-3.54,1.39-7.48-.02-9.79-3.71-2.08-3.31-2.75-7.03-2.78-10.89Z"/>
    <path class="cls-1" d="M375.17,554.6c.18-3.17,1.13-6.68,3.15-9.84,1.21-1.89,2.95-2.8,5.17-2.36,2.08,.41,3.09,1.94,3.67,3.9,.73,2.44,.07,4.79-.37,7.13-.7,3.73-1.64,7.43-1.26,11.26,.22,2.26-.78,2.59-2.7,2.14-4.87-1.15-7.83-5.59-7.67-12.23Z"/>
    <path class="cls-1" d="M394.91,578.55c-.11-5.71,2.37-9.47,6.49-12.28,3.04-2.07,6.16-1.88,9.33-.23,2.77,1.45,3.29,3.39,1.26,5.79-1.22,1.44-2.54,2.84-4,4.03-3.15,2.56-6.23,5.2-8.84,8.31-1.63,1.94-2.6,1.65-3.33-.58-.59-1.81-1.08-3.65-.91-5.04Z"/>
    <path class="cls-1" d="M343.09,558.21c-.03-2.03,.52-3.79,2.49-4.74,1.98-.95,3.74-.22,5.26,1.06,2.41,2.03,3.54,4.87,4.61,7.73,1.1,2.96,2.08,5.99,3.41,8.85,1.2,2.58,.29,3.1-2.12,2.95-6.99-.43-13.57-8.04-13.65-15.86Z"/>
    <path class="cls-1" d="M347.21,583.31c-3.93-.08-7.48-1.41-10.68-3.58-2-1.35-3.43-3.37-2.34-5.86,1.03-2.35,3.32-2.45,5.59-2.08,4.19,.69,8.01,2.44,11.79,4.25,1.2,.57,2.94,.93,2.93,2.63-.02,1.8-1.46,2.86-2.87,3.79-1.35,.89-2.88,.9-4.42,.86Z"/>
  </g>
  <g>
    <path class="cls-2" d="M458.43,547.95c-4.29-.3-7.85-1.49-10.89-3.98-5.82-4.78-9.14-11.17-11.13-18.24-1.32-4.7,.69-8.44,4.53-11.23,5.07-3.67,10.96-5.31,16.99-6.25,4.05-.63,6.86,1.94,8.39,5.34,2.67,5.96,5.65,11.57,10.56,16.09,2.31,2.13,1.76,6.23-.88,9.41-4.64,5.59-10.85,8.12-17.57,8.85Z"/>
    <path class="cls-2" d="M438.42,492.95c-.07-2.57,.26-5.08,1.51-7.36,.9-1.64,2.29-2.81,4.25-2.71,1.88,.1,2.8,1.56,3.46,3.13,1.45,3.46,1.33,7.19,1.74,10.82,.32,2.81,.72,5.56,2.63,7.77,1.49,1.71,.51,2.34-1.02,2.94-3.54,1.39-7.48-.02-9.79-3.71-2.08-3.31-2.75-7.03-2.78-10.89Z"/>
    <path class="cls-2" d="M454.57,494.06c.18-3.17,1.13-6.68,3.15-9.84,1.21-1.89,2.95-2.8,5.17-2.36,2.08,.41,3.09,1.94,3.67,3.9,.73,2.44,.07,4.79-.37,7.13-.7,3.73-1.64,7.43-1.26,11.26,.22,2.26-.78,2.59-2.7,2.14-4.87-1.15-7.83-5.59-7.67-12.23Z"/>
    <path class="cls-2" d="M474.31,518c-.11-5.71,2.37-9.47,6.49-12.28,3.04-2.07,6.16-1.88,9.33-.23,2.77,1.45,3.29,3.39,1.26,5.79-1.22,1.44-2.54,2.84-4,4.03-3.15,2.56-6.23,5.2-8.84,8.31-1.63,1.94-2.6,1.65-3.33-.58-.59-1.81-1.08-3.65-.91-5.04Z"/>
    <path class="cls-2" d="M422.49,497.67c-.03-2.03,.52-3.79,2.49-4.74,1.98-.95,3.74-.22,5.26,1.06,2.41,2.03,3.54,4.87,4.61,7.73,1.1,2.96,2.08,5.99,3.41,8.85,1.2,2.58,.29,3.1-2.12,2.95-6.99-.43-13.57-8.04-13.65-15.86Z"/>
    <path class="cls-2" d="M426.61,522.77c-3.93-.08-7.48-1.41-10.68-3.58-2-1.35-3.43-3.37-2.34-5.86,1.03-2.35,3.32-2.45,5.59-2.08,4.19,.69,8.01,2.44,11.79,4.25,1.2,.57,2.94,.93,2.93,2.63-.02,1.8-1.46,2.86-2.87,3.79-1.35,.89-2.88,.9-4.42,.86Z"/>
  </g>
  <g>
    <path class="cls-3" d="M545.94,608.5c-4.29-.3-7.85-1.49-10.89-3.98-5.82-4.78-9.14-11.17-11.13-18.24-1.32-4.7,.69-8.44,4.53-11.23,5.07-3.67,10.96-5.31,16.99-6.25,4.05-.63,6.86,1.94,8.39,5.34,2.67,5.96,5.65,11.57,10.56,16.09,2.31,2.13,1.76,6.23-.88,9.41-4.64,5.59-10.85,8.12-17.57,8.85Z"/>
    <path class="cls-3" d="M525.93,553.5c-.07-2.57,.26-5.08,1.51-7.36,.9-1.64,2.29-2.81,4.25-2.71,1.88,.1,2.8,1.56,3.46,3.13,1.45,3.46,1.33,7.19,1.74,10.82,.32,2.81,.72,5.56,2.63,7.77,1.49,1.71,.51,2.34-1.02,2.94-3.54,1.39-7.48-.02-9.79-3.71-2.08-3.31-2.75-7.03-2.78-10.89Z"/>
    <path class="cls-3" d="M542.08,554.6c.18-3.17,1.13-6.68,3.15-9.84,1.21-1.89,2.95-2.8,5.17-2.36,2.08,.41,3.09,1.94,3.67,3.9,.73,2.44,.07,4.79-.37,7.13-.7,3.73-1.64,7.43-1.26,11.26,.22,2.26-.78,2.59-2.7,2.14-4.87-1.15-7.83-5.59-7.67-12.23Z"/>
    <path class="cls-3" d="M561.82,578.55c-.11-5.71,2.37-9.47,6.49-12.28,3.04-2.07,6.16-1.88,9.33-.23,2.77,1.45,3.29,3.39,1.26,5.79-1.22,1.44-2.54,2.84-4,4.03-3.15,2.56-6.23,5.2-8.84,8.31-1.63,1.94-2.6,1.65-3.33-.58-.59-1.81-1.08-3.65-.91-5.04Z"/>
    <path class="cls-3" d="M510,558.21c-.03-2.03,.52-3.79,2.49-4.74,1.98-.95,3.74-.22,5.26,1.06,2.41,2.03,3.54,4.87,4.61,7.73,1.1,2.96,2.08,5.99,3.41,8.85,1.2,2.58,.29,3.1-2.12,2.95-6.99-.43-13.57-8.04-13.65-15.86Z"/>
    <path class="cls-3" d="M514.12,583.31c-3.93-.08-7.48-1.41-10.68-3.58-2-1.35-3.43-3.37-2.34-5.86,1.03-2.35,3.32-2.45,5.59-2.08,4.19,.69,8.01,2.44,11.79,4.25,1.2,.57,2.94,.93,2.93,2.63-.02,1.8-1.46,2.86-2.87,3.79-1.35,.89-2.88,.9-4.42,.86Z"/>
  </g>
  <g>
    <path class="cls-2" d="M625.34,547.95c-4.29-.3-7.85-1.49-10.89-3.98-5.82-4.78-9.14-11.17-11.13-18.24-1.32-4.7,.69-8.44,4.53-11.23,5.07-3.67,10.96-5.31,16.99-6.25,4.05-.63,6.86,1.94,8.39,5.34,2.67,5.96,5.65,11.57,10.56,16.09,2.31,2.13,1.76,6.23-.88,9.41-4.64,5.59-10.85,8.12-17.57,8.85Z"/>
    <path class="cls-2" d="M605.33,492.95c-.07-2.57,.26-5.08,1.51-7.36,.9-1.64,2.29-2.81,4.25-2.71,1.88,.1,2.8,1.56,3.46,3.13,1.45,3.46,1.33,7.19,1.74,10.82,.32,2.81,.72,5.56,2.63,7.77,1.49,1.71,.51,2.34-1.02,2.94-3.54,1.39-7.48-.02-9.79-3.71-2.08-3.31-2.75-7.03-2.78-10.89Z"/>
    <path class="cls-2" d="M621.48,494.06c.18-3.17,1.13-6.68,3.15-9.84,1.21-1.89,2.95-2.8,5.17-2.36,2.08,.41,3.09,1.94,3.67,3.9,.73,2.44,.07,4.79-.37,7.13-.7,3.73-1.64,7.43-1.26,11.26,.22,2.26-.78,2.59-2.7,2.14-4.87-1.15-7.83-5.59-7.67-12.23Z"/>
    <path class="cls-2" d="M641.22,518c-.11-5.71,2.37-9.47,6.49-12.28,3.04-2.07,6.16-1.88,9.33-.23,2.77,1.45,3.29,3.39,1.26,5.79-1.22,1.44-2.54,2.84-4,4.03-3.15,2.56-6.23,5.2-8.84,8.31-1.63,1.94-2.6,1.65-3.33-.58-.59-1.81-1.08-3.65-.91-5.04Z"/>
    <path class="cls-2" d="M589.4,497.67c-.03-2.03,.52-3.79,2.49-4.74,1.98-.95,3.74-.22,5.26,1.06,2.41,2.03,3.54,4.87,4.61,7.73,1.1,2.96,2.08,5.99,3.41,8.85,1.2,2.58,.29,3.1-2.12,2.95-6.99-.43-13.57-8.04-13.65-15.86Z"/>
    <path class="cls-2" d="M593.52,522.77c-3.93-.08-7.48-1.41-10.68-3.58-2-1.35-3.43-3.37-2.34-5.86,1.03-2.35,3.32-2.45,5.59-2.08,4.19,.69,8.01,2.44,11.79,4.25,1.2,.57,2.94,.93,2.93,2.63-.02,1.8-1.46,2.86-2.87,3.79-1.35,.89-2.88,.9-4.42,.86Z"/>
  </g>
  <g>
    <path class="cls-1" d="M712.85,608.5c-4.29-.3-7.85-1.49-10.89-3.98-5.82-4.78-9.14-11.17-11.13-18.24-1.32-4.7,.69-8.44,4.53-11.23,5.07-3.67,10.96-5.31,16.99-6.25,4.05-.63,6.86,1.94,8.39,5.34,2.67,5.96,5.65,11.57,10.56,16.09,2.31,2.13,1.76,6.23-.88,9.41-4.64,5.59-10.85,8.12-17.57,8.85Z"/>
    <path class="cls-1" d="M692.84,553.5c-.07-2.57,.26-5.08,1.51-7.36,.9-1.64,2.29-2.81,4.25-2.71,1.88,.1,2.8,1.56,3.46,3.13,1.45,3.46,1.33,7.19,1.74,10.82,.32,2.81,.72,5.56,2.63,7.77,1.49,1.71,.51,2.34-1.02,2.94-3.54,1.39-7.48-.02-9.79-3.71-2.08-3.31-2.75-7.03-2.78-10.89Z"/>
    <path class="cls-1" d="M708.98,554.6c.18-3.17,1.13-6.68,3.15-9.84,1.21-1.89,2.95-2.8,5.17-2.36,2.08,.41,3.09,1.94,3.67,3.9,.73,2.44,.07,4.79-.37,7.13-.7,3.73-1.64,7.43-1.26,11.26,.22,2.26-.78,2.59-2.7,2.14-4.87-1.15-7.83-5.59-7.67-12.23Z"/>
    <path class="cls-1" d="M728.73,578.55c-.11-5.71,2.37-9.47,6.49-12.28,3.04-2.07,6.16-1.88,9.33-.23,2.77,1.45,3.29,3.39,1.26,5.79-1.22,1.44-2.54,2.84-4,4.03-3.15,2.56-6.23,5.2-8.84,8.31-1.63,1.94-2.6,1.65-3.33-.58-.59-1.81-1.08-3.65-.91-5.04Z"/>
    <path class="cls-1" d="M676.9,558.21c-.03-2.03,.52-3.79,2.49-4.74,1.98-.95,3.74-.22,5.26,1.06,2.41,2.03,3.54,4.87,4.61,7.73,1.1,2.96,2.08,5.99,3.41,8.85,1.2,2.58,.29,3.1-2.12,2.95-6.99-.43-13.57-8.04-13.65-15.86Z"/>
    <path class="cls-1" d="M681.03,583.31c-3.93-.08-7.48-1.41-10.68-3.58-2-1.35-3.43-3.37-2.34-5.86,1.03-2.35,3.32-2.45,5.59-2.08,4.19,.69,8.01,2.44,11.79,4.25,1.2,.57,2.94,.93,2.93,2.63-.02,1.8-1.46,2.86-2.87,3.79-1.35,.89-2.88,.9-4.42,.86Z"/>
  </g>
  <g>
    <path class="cls-2" d="M792.25,547.95c-4.29-.3-7.85-1.49-10.89-3.98-5.82-4.78-9.14-11.17-11.13-18.24-1.32-4.7,.69-8.44,4.53-11.23,5.07-3.67,10.96-5.31,16.99-6.25,4.05-.63,6.86,1.94,8.39,5.34,2.67,5.96,5.65,11.57,10.56,16.09,2.31,2.13,1.76,6.23-.88,9.41-4.64,5.59-10.85,8.12-17.57,8.85Z"/>
    <path class="cls-2" d="M772.24,492.95c-.07-2.57,.26-5.08,1.51-7.36,.9-1.64,2.29-2.81,4.25-2.71,1.88,.1,2.8,1.56,3.46,3.13,1.45,3.46,1.33,7.19,1.74,10.82,.32,2.81,.72,5.56,2.63,7.77,1.49,1.71,.51,2.34-1.02,2.94-3.54,1.39-7.48-.02-9.79-3.71-2.08-3.31-2.75-7.03-2.78-10.89Z"/>
    <path class="cls-2" d="M788.39,494.06c.18-3.17,1.13-6.68,3.15-9.84,1.21-1.89,2.95-2.8,5.17-2.36,2.08,.41,3.09,1.94,3.67,3.9,.73,2.44,.07,4.79-.37,7.13-.7,3.73-1.64,7.43-1.26,11.26,.22,2.26-.78,2.59-2.7,2.14-4.87-1.15-7.83-5.59-7.67-12.23Z"/>
    <path class="cls-2" d="M808.13,518c-.11-5.71,2.37-9.47,6.49-12.28,3.04-2.07,6.16-1.88,9.33-.23,2.77,1.45,3.29,3.39,1.26,5.79-1.22,1.44-2.54,2.84-4,4.03-3.15,2.56-6.23,5.2-8.84,8.31-1.63,1.94-2.6,1.65-3.33-.58-.59-1.81-1.08-3.65-.91-5.04Z"/>
    <path class="cls-2" d="M756.31,497.67c-.03-2.03,.52-3.79,2.49-4.74,1.98-.95,3.74-.22,5.26,1.06,2.41,2.03,3.54,4.87,4.61,7.73,1.1,2.96,2.08,5.99,3.41,8.85,1.2,2.58,.29,3.1-2.12,2.95-6.99-.43-13.57-8.04-13.65-15.86Z"/>
    <path class="cls-2" d="M760.43,522.77c-3.93-.08-7.48-1.41-10.68-3.58-2-1.35-3.43-3.37-2.34-5.86,1.03-2.35,3.32-2.45,5.59-2.08,4.19,.69,8.01,2.44,11.79,4.25,1.2,.57,2.94,.93,2.93,2.63-.02,1.8-1.46,2.86-2.87,3.79-1.35,.89-2.88,.9-4.42,.86Z"/>
  </g>
  <g>
    <path class="cls-1" d="M45.21,488.06c-4.29-.3-7.85-1.49-10.89-3.98-5.82-4.78-9.14-11.17-11.13-18.24-1.32-4.7,.69-8.44,4.53-11.23,5.07-3.67,10.96-5.31,16.99-6.25,4.05-.63,6.86,1.94,8.39,5.34,2.67,5.96,5.65,11.57,10.56,16.09,2.31,2.13,1.76,6.23-.88,9.41-4.64,5.59-10.85,8.12-17.57,8.85Z"/>
    <path class="cls-1" d="M25.2,433.06c-.07-2.57,.26-5.08,1.51-7.36,.9-1.64,2.29-2.81,4.25-2.71,1.88,.1,2.8,1.56,3.46,3.13,1.45,3.46,1.33,7.19,1.74,10.82,.32,2.81,.72,5.56,2.63,7.77,1.49,1.71,.51,2.34-1.02,2.94-3.54,1.39-7.48-.02-9.79-3.71-2.08-3.31-2.75-7.03-2.78-10.89Z"/>
    <path class="cls-1" d="M41.35,434.17c.18-3.17,1.13-6.68,3.15-9.84,1.21-1.89,2.95-2.8,5.17-2.36,2.08,.41,3.09,1.94,3.67,3.9,.73,2.44,.07,4.79-.37,7.13-.7,3.73-1.64,7.43-1.26,11.26,.22,2.26-.78,2.59-2.7,2.14-4.87-1.15-7.83-5.59-7.67-12.23Z"/>
    <path class="cls-1" d="M61.09,458.11c-.11-5.71,2.37-9.47,6.49-12.28,3.04-2.07,6.16-1.88,9.33-.23,2.77,1.45,3.29,3.39,1.26,5.79-1.22,1.44-2.54,2.84-4,4.03-3.15,2.56-6.23,5.2-8.84,8.31-1.63,1.94-2.6,1.65-3.33-.58-.59-1.81-1.08-3.65-.91-5.04Z"/>
    <path class="cls-1" d="M9.27,437.78c-.03-2.03,.52-3.79,2.49-4.74,1.98-.95,3.74-.22,5.26,1.06,2.41,2.03,3.54,4.87,4.61,7.73,1.1,2.96,2.08,5.99,3.41,8.85,1.2,2.58,.29,3.1-2.12,2.95-6.99-.43-13.57-8.04-13.65-15.86Z"/>
    <path class="cls-1" d="M13.4,462.88c-3.93-.08-7.48-1.41-10.68-3.58-2-1.35-3.43-3.37-2.34-5.86,1.03-2.35,3.32-2.45,5.59-2.08,4.19,.69,8.01,2.44,11.79,4.25,1.2,.57,2.94,.93,2.93,2.63-.02,1.8-1.46,2.86-2.87,3.79-1.35,.89-2.88,.9-4.42,.86Z"/>
  </g>
  <g>
    <path class="cls-2" d="M124.61,427.51c-4.29-.3-7.85-1.49-10.89-3.98-5.82-4.78-9.14-11.17-11.13-18.24-1.32-4.7,.69-8.44,4.53-11.23,5.07-3.67,10.96-5.31,16.99-6.25,4.05-.63,6.86,1.94,8.39,5.34,2.67,5.96,5.65,11.57,10.56,16.09,2.31,2.13,1.76,6.23-.88,9.41-4.64,5.59-10.85,8.12-17.57,8.85Z"/>
    <path class="cls-2" d="M104.6,372.51c-.07-2.57,.26-5.08,1.51-7.36,.9-1.64,2.29-2.81,4.25-2.71,1.88,.1,2.8,1.56,3.46,3.13,1.45,3.46,1.33,7.19,1.74,10.82,.32,2.81,.72,5.56,2.63,7.77,1.49,1.71,.51,2.34-1.02,2.94-3.54,1.39-7.48-.02-9.79-3.71-2.08-3.31-2.75-7.03-2.78-10.89Z"/>
    <path class="cls-2" d="M120.75,373.62c.18-3.17,1.13-6.68,3.15-9.84,1.21-1.89,2.95-2.8,5.17-2.36,2.08,.41,3.09,1.94,3.67,3.9,.73,2.44,.07,4.79-.37,7.13-.7,3.73-1.64,7.43-1.26,11.26,.22,2.26-.78,2.59-2.7,2.14-4.87-1.15-7.83-5.59-7.67-12.23Z"/>
    <path class="cls-2" d="M140.49,397.56c-.11-5.71,2.37-9.47,6.49-12.28,3.04-2.07,6.16-1.88,9.33-.23,2.77,1.45,3.29,3.39,1.26,5.79-1.22,1.44-2.54,2.84-4,4.03-3.15,2.56-6.23,5.2-8.84,8.31-1.63,1.94-2.6,1.65-3.33-.58-.59-1.81-1.08-3.65-.91-5.04Z"/>
    <path class="cls-2" d="M88.67,377.23c-.03-2.03,.52-3.79,2.49-4.74,1.98-.95,3.74-.22,5.26,1.06,2.41,2.03,3.54,4.87,4.61,7.73,1.1,2.96,2.08,5.99,3.41,8.85,1.2,2.58,.29,3.1-2.12,2.95-6.99-.43-13.57-8.04-13.65-15.86Z"/>
    <path class="cls-2" d="M92.8,402.33c-3.93-.08-7.48-1.41-10.68-3.58-2-1.35-3.43-3.37-2.34-5.86,1.03-2.35,3.32-2.45,5.59-2.08,4.19,.69,8.01,2.44,11.79,4.25,1.2,.57,2.94,.93,2.93,2.63-.02,1.8-1.46,2.86-2.87,3.79-1.35,.89-2.88,.9-4.42,.86Z"/>
  </g>
  <g>
    <path class="cls-3" d="M212.12,488.06c-4.29-.3-7.85-1.49-10.89-3.98-5.82-4.78-9.14-11.17-11.13-18.24-1.32-4.7,.69-8.44,4.53-11.23,5.07-3.67,10.96-5.31,16.99-6.25,4.05-.63,6.86,1.94,8.39,5.34,2.67,5.96,5.65,11.57,10.56,16.09,2.31,2.13,1.76,6.23-.88,9.41-4.64,5.59-10.85,8.12-17.57,8.85Z"/>
    <path class="cls-3" d="M192.11,433.06c-.07-2.57,.26-5.08,1.51-7.36,.9-1.64,2.29-2.81,4.25-2.71,1.88,.1,2.8,1.56,3.46,3.13,1.45,3.46,1.33,7.19,1.74,10.82,.32,2.81,.72,5.56,2.63,7.77,1.49,1.71,.51,2.34-1.02,2.94-3.54,1.39-7.48-.02-9.79-3.71-2.08-3.31-2.75-7.03-2.78-10.89Z"/>
    <path class="cls-3" d="M208.26,434.17c.18-3.17,1.13-6.68,3.15-9.84,1.21-1.89,2.95-2.8,5.17-2.36,2.08,.41,3.09,1.94,3.67,3.9,.73,2.44,.07,4.79-.37,7.13-.7,3.73-1.64,7.43-1.26,11.26,.22,2.26-.78,2.59-2.7,2.14-4.87-1.15-7.83-5.59-7.67-12.23Z"/>
    <path class="cls-3" d="M228,458.11c-.11-5.71,2.37-9.47,6.49-12.28,3.04-2.07,6.16-1.88,9.33-.23,2.77,1.45,3.29,3.39,1.26,5.79-1.22,1.44-2.54,2.84-4,4.03-3.15,2.56-6.23,5.2-8.84,8.31-1.63,1.94-2.6,1.65-3.33-.58-.59-1.81-1.08-3.65-.91-5.04Z"/>
    <path class="cls-3" d="M176.18,437.78c-.03-2.03,.52-3.79,2.49-4.74,1.98-.95,3.74-.22,5.26,1.06,2.41,2.03,3.54,4.87,4.61,7.73,1.1,2.96,2.08,5.99,3.41,8.85,1.2,2.58,.29,3.1-2.12,2.95-6.99-.43-13.57-8.04-13.65-15.86Z"/>
    <path class="cls-3" d="M180.31,462.88c-3.93-.08-7.48-1.41-10.68-3.58-2-1.35-3.43-3.37-2.34-5.86,1.03-2.35,3.32-2.45,5.59-2.08,4.19,.69,8.01,2.44,11.79,4.25,1.2,.57,2.94,.93,2.93,2.63-.02,1.8-1.46,2.86-2.87,3.79-1.35,.89-2.88,.9-4.42,.86Z"/>
  </g>
  <g>
    <path class="cls-2" d="M291.52,427.51c-4.29-.3-7.85-1.49-10.89-3.98-5.82-4.78-9.14-11.17-11.13-18.24-1.32-4.7,.69-8.44,4.53-11.23,5.07-3.67,10.96-5.31,16.99-6.25,4.05-.63,6.86,1.94,8.39,5.34,2.67,5.96,5.65,11.57,10.56,16.09,2.31,2.13,1.76,6.23-.88,9.41-4.64,5.59-10.85,8.12-17.57,8.85Z"/>
    <path class="cls-2" d="M271.51,372.51c-.07-2.57,.26-5.08,1.51-7.36,.9-1.64,2.29-2.81,4.25-2.71,1.88,.1,2.8,1.56,3.46,3.13,1.45,3.46,1.33,7.19,1.74,10.82,.32,2.81,.72,5.56,2.63,7.77,1.49,1.71,.51,2.34-1.02,2.94-3.54,1.39-7.48-.02-9.79-3.71-2.08-3.31-2.75-7.03-2.78-10.89Z"/>
    <path class="cls-2" d="M287.66,373.62c.18-3.17,1.13-6.68,3.15-9.84,1.21-1.89,2.95-2.8,5.17-2.36,2.08,.41,3.09,1.94,3.67,3.9,.73,2.44,.07,4.79-.37,7.13-.7,3.73-1.64,7.43-1.26,11.26,.22,2.26-.78,2.59-2.7,2.14-4.87-1.15-7.83-5.59-7.67-12.23Z"/>
    <path class="cls-2" d="M307.4,397.56c-.11-5.71,2.37-9.47,6.49-12.28,3.04-2.07,6.16-1.88,9.33-.23,2.77,1.45,3.29,3.39,1.26,5.79-1.22,1.44-2.54,2.84-4,4.03-3.15,2.56-6.23,5.2-8.84,8.31-1.63,1.94-2.6,1.65-3.33-.58-.59-1.81-1.08-3.65-.91-5.04Z"/>
    <path class="cls-2" d="M255.58,377.23c-.03-2.03,.52-3.79,2.49-4.74,1.98-.95,3.74-.22,5.26,1.06,2.41,2.03,3.54,4.87,4.61,7.73,1.1,2.96,2.08,5.99,3.41,8.85,1.2,2.58,.29,3.1-2.12,2.95-6.99-.43-13.57-8.04-13.65-15.86Z"/>
    <path class="cls-2" d="M259.71,402.33c-3.93-.08-7.48-1.41-10.68-3.58-2-1.35-3.43-3.37-2.34-5.86,1.03-2.35,3.32-2.45,5.59-2.08,4.19,.69,8.01,2.44,11.79,4.25,1.2,.57,2.94,.93,2.93,2.63-.02,1.8-1.46,2.86-2.87,3.79-1.35,.89-2.88,.9-4.42,.86Z"/>
  </g>
  <g>
    <path class="cls-1" d="M379.03,488.06c-4.29-.3-7.85-1.49-10.89-3.98-5.82-4.78-9.14-11.17-11.13-18.24-1.32-4.7,.69-8.44,4.53-11.23,5.07-3.67,10.96-5.31,16.99-6.25,4.05-.63,6.86,1.94,8.39,5.34,2.67,5.96,5.65,11.57,10.56,16.09,2.31,2.13,1.76,6.23-.88,9.41-4.64,5.59-10.85,8.12-17.57,8.85Z"/>
    <path class="cls-1" d="M359.02,433.06c-.07-2.57,.26-5.08,1.51-7.36,.9-1.64,2.29-2.81,4.25-2.71,1.88,.1,2.8,1.56,3.46,3.13,1.45,3.46,1.33,7.19,1.74,10.82,.32,2.81,.72,5.56,2.63,7.77,1.49,1.71,.51,2.34-1.02,2.94-3.54,1.39-7.48-.02-9.79-3.71-2.08-3.31-2.75-7.03-2.78-10.89Z"/>
    <path class="cls-1" d="M375.17,434.17c.18-3.17,1.13-6.68,3.15-9.84,1.21-1.89,2.95-2.8,5.17-2.36,2.08,.41,3.09,1.94,3.67,3.9,.73,2.44,.07,4.79-.37,7.13-.7,3.73-1.64,7.43-1.26,11.26,.22,2.26-.78,2.59-2.7,2.14-4.87-1.15-7.83-5.59-7.67-12.23Z"/>
    <path class="cls-1" d="M394.91,458.11c-.11-5.71,2.37-9.47,6.49-12.28,3.04-2.07,6.16-1.88,9.33-.23,2.77,1.45,3.29,3.39,1.26,5.79-1.22,1.44-2.54,2.84-4,4.03-3.15,2.56-6.23,5.2-8.84,8.31-1.63,1.94-2.6,1.65-3.33-.58-.59-1.81-1.08-3.65-.91-5.04Z"/>
    <path class="cls-1" d="M343.09,437.78c-.03-2.03,.52-3.79,2.49-4.74,1.98-.95,3.74-.22,5.26,1.06,2.41,2.03,3.54,4.87,4.61,7.73,1.1,2.96,2.08,5.99,3.41,8.85,1.2,2.58,.29,3.1-2.12,2.95-6.99-.43-13.57-8.04-13.65-15.86Z"/>
    <path class="cls-1" d="M347.21,462.88c-3.93-.08-7.48-1.41-10.68-3.58-2-1.35-3.43-3.37-2.34-5.86,1.03-2.35,3.32-2.45,5.59-2.08,4.19,.69,8.01,2.44,11.79,4.25,1.2,.57,2.94,.93,2.93,2.63-.02,1.8-1.46,2.86-2.87,3.79-1.35,.89-2.88,.9-4.42,.86Z"/>
  </g>
  <g>
    <path class="cls-2" d="M458.43,427.51c-4.29-.3-7.85-1.49-10.89-3.98-5.82-4.78-9.14-11.17-11.13-18.24-1.32-4.7,.69-8.44,4.53-11.23,5.07-3.67,10.96-5.31,16.99-6.25,4.05-.63,6.86,1.94,8.39,5.34,2.67,5.96,5.65,11.57,10.56,16.09,2.31,2.13,1.76,6.23-.88,9.41-4.64,5.59-10.85,8.12-17.57,8.85Z"/>
    <path class="cls-2" d="M438.42,372.51c-.07-2.57,.26-5.08,1.51-7.36,.9-1.64,2.29-2.81,4.25-2.71,1.88,.1,2.8,1.56,3.46,3.13,1.45,3.46,1.33,7.19,1.74,10.82,.32,2.81,.72,5.56,2.63,7.77,1.49,1.71,.51,2.34-1.02,2.94-3.54,1.39-7.48-.02-9.79-3.71-2.08-3.31-2.75-7.03-2.78-10.89Z"/>
    <path class="cls-2" d="M454.57,373.62c.18-3.17,1.13-6.68,3.15-9.84,1.21-1.89,2.95-2.8,5.17-2.36,2.08,.41,3.09,1.94,3.67,3.9,.73,2.44,.07,4.79-.37,7.13-.7,3.73-1.64,7.43-1.26,11.26,.22,2.26-.78,2.59-2.7,2.14-4.87-1.15-7.83-5.59-7.67-12.23Z"/>
    <path class="cls-2" d="M474.31,397.56c-.11-5.71,2.37-9.47,6.49-12.28,3.04-2.07,6.16-1.88,9.33-.23,2.77,1.45,3.29,3.39,1.26,5.79-1.22,1.44-2.54,2.84-4,4.03-3.15,2.56-6.23,5.2-8.84,8.31-1.63,1.94-2.6,1.65-3.33-.58-.59-1.81-1.08-3.65-.91-5.04Z"/>
    <path class="cls-2" d="M422.49,377.23c-.03-2.03,.52-3.79,2.49-4.74,1.98-.95,3.74-.22,5.26,1.06,2.41,2.03,3.54,4.87,4.61,7.73,1.1,2.96,2.08,5.99,3.41,8.85,1.2,2.58,.29,3.1-2.12,2.95-6.99-.43-13.57-8.04-13.65-15.86Z"/>
    <path class="cls-2" d="M426.61,402.33c-3.93-.08-7.48-1.41-10.68-3.58-2-1.35-3.43-3.37-2.34-5.86,1.03-2.35,3.32-2.45,5.59-2.08,4.19,.69,8.01,2.44,11.79,4.25,1.2,.57,2.94,.93,2.93,2.63-.02,1.8-1.46,2.86-2.87,3.79-1.35,.89-2.88,.9-4.42,.86Z"/>
  </g>
  <g>
    <path class="cls-3" d="M545.94,488.06c-4.29-.3-7.85-1.49-10.89-3.98-5.82-4.78-9.14-11.17-11.13-18.24-1.32-4.7,.69-8.44,4.53-11.23,5.07-3.67,10.96-5.31,16.99-6.25,4.05-.63,6.86,1.94,8.39,5.34,2.67,5.96,5.65,11.57,10.56,16.09,2.31,2.13,1.76,6.23-.88,9.41-4.64,5.59-10.85,8.12-17.57,8.85Z"/>
    <path class="cls-3" d="M525.93,433.06c-.07-2.57,.26-5.08,1.51-7.36,.9-1.64,2.29-2.81,4.25-2.71,1.88,.1,2.8,1.56,3.46,3.13,1.45,3.46,1.33,7.19,1.74,10.82,.32,2.81,.72,5.56,2.63,7.77,1.49,1.71,.51,2.34-1.02,2.94-3.54,1.39-7.48-.02-9.79-3.71-2.08-3.31-2.75-7.03-2.78-10.89Z"/>
    <path class="cls-3" d="M542.08,434.17c.18-3.17,1.13-6.68,3.15-9.84,1.21-1.89,2.95-2.8,5.17-2.36,2.08,.41,3.09,1.94,3.67,3.9,.73,2.44,.07,4.79-.37,7.13-.7,3.73-1.64,7.43-1.26,11.26,.22,2.26-.78,2.59-2.7,2.14-4.87-1.15-7.83-5.59-7.67-12.23Z"/>
    <path class="cls-3" d="M561.82,458.11c-.11-5.71,2.37-9.47,6.49-12.28,3.04-2.07,6.16-1.88,9.33-.23,2.77,1.45,3.29,3.39,1.26,5.79-1.22,1.44-2.54,2.84-4,4.03-3.15,2.56-6.23,5.2-8.84,8.31-1.63,1.94-2.6,1.65-3.33-.58-.59-1.81-1.08-3.65-.91-5.04Z"/>
    <path class="cls-3" d="M510,437.78c-.03-2.03,.52-3.79,2.49-4.74,1.98-.95,3.74-.22,5.26,1.06,2.41,2.03,3.54,4.87,4.61,7.73,1.1,2.96,2.08,5.99,3.41,8.85,1.2,2.58,.29,3.1-2.12,2.95-6.99-.43-13.57-8.04-13.65-15.86Z"/>
    <path class="cls-3" d="M514.12,462.88c-3.93-.08-7.48-1.41-10.68-3.58-2-1.35-3.43-3.37-2.34-5.86,1.03-2.35,3.32-2.45,5.59-2.08,4.19,.69,8.01,2.44,11.79,4.25,1.2,.57,2.94,.93,2.93,2.63-.02,1.8-1.46,2.86-2.87,3.79-1.35,.89-2.88,.9-4.42,.86Z"/>
  </g>
  <g>
    <path class="cls-2" d="M625.34,427.51c-4.29-.3-7.85-1.49-10.89-3.98-5.82-4.78-9.14-11.17-11.13-18.24-1.32-4.7,.69-8.44,4.53-11.23,5.07-3.67,10.96-5.31,16.99-6.25,4.05-.63,6.86,1.94,8.39,5.34,2.67,5.96,5.65,11.57,10.56,16.09,2.31,2.13,1.76,6.23-.88,9.41-4.64,5.59-10.85,8.12-17.57,8.85Z"/>
    <path class="cls-2" d="M605.33,372.51c-.07-2.57,.26-5.08,1.51-7.36,.9-1.64,2.29-2.81,4.25-2.71,1.88,.1,2.8,1.56,3.46,3.13,1.45,3.46,1.33,7.19,1.74,10.82,.32,2.81,.72,5.56,2.63,7.77,1.49,1.71,.51,2.34-1.02,2.94-3.54,1.39-7.48-.02-9.79-3.71-2.08-3.31-2.75-7.03-2.78-10.89Z"/>
    <path class="cls-2" d="M621.48,373.62c.18-3.17,1.13-6.68,3.15-9.84,1.21-1.89,2.95-2.8,5.17-2.36,2.08,.41,3.09,1.94,3.67,3.9,.73,2.44,.07,4.79-.37,7.13-.7,3.73-1.64,7.43-1.26,11.26,.22,2.26-.78,2.59-2.7,2.14-4.87-1.15-7.83-5.59-7.67-12.23Z"/>
    <path class="cls-2" d="M641.22,397.56c-.11-5.71,2.37-9.47,6.49-12.28,3.04-2.07,6.16-1.88,9.33-.23,2.77,1.45,3.29,3.39,1.26,5.79-1.22,1.44-2.54,2.84-4,4.03-3.15,2.56-6.23,5.2-8.84,8.31-1.63,1.94-2.6,1.65-3.33-.58-.59-1.81-1.08-3.65-.91-5.04Z"/>
    <path class="cls-2" d="M589.4,377.23c-.03-2.03,.52-3.79,2.49-4.74,1.98-.95,3.74-.22,5.26,1.06,2.41,2.03,3.54,4.87,4.61,7.73,1.1,2.96,2.08,5.99,3.41,8.85,1.2,2.58,.29,3.1-2.12,2.95-6.99-.43-13.57-8.04-13.65-15.86Z"/>
    <path class="cls-2" d="M593.52,402.33c-3.93-.08-7.48-1.41-10.68-3.58-2-1.35-3.43-3.37-2.34-5.86,1.03-2.35,3.32-2.45,5.59-2.08,4.19,.69,8.01,2.44,11.79,4.25,1.2,.57,2.94,.93,2.93,2.63-.02,1.8-1.46,2.86-2.87,3.79-1.35,.89-2.88,.9-4.42,.86Z"/>
  </g>
  <g>
    <path class="cls-1" d="M712.85,488.06c-4.29-.3-7.85-1.49-10.89-3.98-5.82-4.78-9.14-11.17-11.13-18.24-1.32-4.7,.69-8.44,4.53-11.23,5.07-3.67,10.96-5.31,16.99-6.25,4.05-.63,6.86,1.94,8.39,5.34,2.67,5.96,5.65,11.57,10.56,16.09,2.31,2.13,1.76,6.23-.88,9.41-4.64,5.59-10.85,8.12-17.57,8.85Z"/>
    <path class="cls-1" d="M692.84,433.06c-.07-2.57,.26-5.08,1.51-7.36,.9-1.64,2.29-2.81,4.25-2.71,1.88,.1,2.8,1.56,3.46,3.13,1.45,3.46,1.33,7.19,1.74,10.82,.32,2.81,.72,5.56,2.63,7.77,1.49,1.71,.51,2.34-1.02,2.94-3.54,1.39-7.48-.02-9.79-3.71-2.08-3.31-2.75-7.03-2.78-10.89Z"/>
    <path class="cls-1" d="M708.98,434.17c.18-3.17,1.13-6.68,3.15-9.84,1.21-1.89,2.95-2.8,5.17-2.36,2.08,.41,3.09,1.94,3.67,3.9,.73,2.44,.07,4.79-.37,7.13-.7,3.73-1.64,7.43-1.26,11.26,.22,2.26-.78,2.59-2.7,2.14-4.87-1.15-7.83-5.59-7.67-12.23Z"/>
    <path class="cls-1" d="M728.73,458.11c-.11-5.71,2.37-9.47,6.49-12.28,3.04-2.07,6.16-1.88,9.33-.23,2.77,1.45,3.29,3.39,1.26,5.79-1.22,1.44-2.54,2.84-4,4.03-3.15,2.56-6.23,5.2-8.84,8.31-1.63,1.94-2.6,1.65-3.33-.58-.59-1.81-1.08-3.65-.91-5.04Z"/>
    <path class="cls-1" d="M676.9,437.78c-.03-2.03,.52-3.79,2.49-4.74,1.98-.95,3.74-.22,5.26,1.06,2.41,2.03,3.54,4.87,4.61,7.73,1.1,2.96,2.08,5.99,3.41,8.85,1.2,2.58,.29,3.1-2.12,2.95-6.99-.43-13.57-8.04-13.65-15.86Z"/>
    <path class="cls-1" d="M681.03,462.88c-3.93-.08-7.48-1.41-10.68-3.58-2-1.35-3.43-3.37-2.34-5.86,1.03-2.35,3.32-2.45,5.59-2.08,4.19,.69,8.01,2.44,11.79,4.25,1.2,.57,2.94,.93,2.93,2.63-.02,1.8-1.46,2.86-2.87,3.79-1.35,.89-2.88,.9-4.42,.86Z"/>
  </g>
  <g>
    <path class="cls-2" d="M792.25,427.51c-4.29-.3-7.85-1.49-10.89-3.98-5.82-4.78-9.14-11.17-11.13-18.24-1.32-4.7,.69-8.44,4.53-11.23,5.07-3.67,10.96-5.31,16.99-6.25,4.05-.63,6.86,1.94,8.39,5.34,2.67,5.96,5.65,11.57,10.56,16.09,2.31,2.13,1.76,6.23-.88,9.41-4.64,5.59-10.85,8.12-17.57,8.85Z"/>
    <path class="cls-2" d="M772.24,372.51c-.07-2.57,.26-5.08,1.51-7.36,.9-1.64,2.29-2.81,4.25-2.71,1.88,.1,2.8,1.56,3.46,3.13,1.45,3.46,1.33,7.19,1.74,10.82,.32,2.81,.72,5.56,2.63,7.77,1.49,1.71,.51,2.34-1.02,2.94-3.54,1.39-7.48-.02-9.79-3.71-2.08-3.31-2.75-7.03-2.78-10.89Z"/>
    <path class="cls-2" d="M788.39,373.62c.18-3.17,1.13-6.68,3.15-9.84,1.21-1.89,2.95-2.8,5.17-2.36,2.08,.41,3.09,1.94,3.67,3.9,.73,2.44,.07,4.79-.37,7.13-.7,3.73-1.64,7.43-1.26,11.26,.22,2.26-.78,2.59-2.7,2.14-4.87-1.15-7.83-5.59-7.67-12.23Z"/>
    <path class="cls-2" d="M808.13,397.56c-.11-5.71,2.37-9.47,6.49-12.28,3.04-2.07,6.16-1.88,9.33-.23,2.77,1.45,3.29,3.39,1.26,5.79-1.22,1.44-2.54,2.84-4,4.03-3.15,2.56-6.23,5.2-8.84,8.31-1.63,1.94-2.6,1.65-3.33-.58-.59-1.81-1.08-3.65-.91-5.04Z"/>
    <path class="cls-2" d="M756.31,377.23c-.03-2.03,.52-3.79,2.49-4.74,1.98-.95,3.74-.22,5.26,1.06,2.41,2.03,3.54,4.87,4.61,7.73,1.1,2.96,2.08,5.99,3.41,8.85,1.2,2.58,.29,3.1-2.12,2.95-6.99-.43-13.57-8.04-13.65-15.86Z"/>
    <path class="cls-2" d="M760.43,402.33c-3.93-.08-7.48-1.41-10.68-3.58-2-1.35-3.43-3.37-2.34-5.86,1.03-2.35,3.32-2.45,5.59-2.08,4.19,.69,8.01,2.44,11.79,4.25,1.2,.57,2.94,.93,2.93,2.63-.02,1.8-1.46,2.86-2.87,3.79-1.35,.89-2.88,.9-4.42,.86Z"/>
  </g>
  <g>
    <path class="cls-1" d="M45.21,367.62c-4.29-.3-7.85-1.49-10.89-3.98-5.82-4.78-9.14-11.17-11.13-18.24-1.32-4.7,.69-8.44,4.53-11.23,5.07-3.67,10.96-5.31,16.99-6.25,4.05-.63,6.86,1.94,8.39,5.34,2.67,5.96,5.65,11.57,10.56,16.09,2.31,2.13,1.76,6.23-.88,9.41-4.64,5.59-10.85,8.12-17.57,8.85Z"/>
    <path class="cls-1" d="M25.2,312.62c-.07-2.57,.26-5.08,1.51-7.36,.9-1.64,2.29-2.81,4.25-2.71,1.88,.1,2.8,1.56,3.46,3.13,1.45,3.46,1.33,7.19,1.74,10.82,.32,2.81,.72,5.56,2.63,7.77,1.49,1.71,.51,2.34-1.02,2.94-3.54,1.39-7.48-.02-9.79-3.71-2.08-3.31-2.75-7.03-2.78-10.89Z"/>
    <path class="cls-1" d="M41.35,313.73c.18-3.17,1.13-6.68,3.15-9.84,1.21-1.89,2.95-2.8,5.17-2.36,2.08,.41,3.09,1.94,3.67,3.9,.73,2.44,.07,4.79-.37,7.13-.7,3.73-1.64,7.43-1.26,11.26,.22,2.26-.78,2.59-2.7,2.14-4.87-1.15-7.83-5.59-7.67-12.23Z"/>
    <path class="cls-1" d="M61.09,337.67c-.11-5.71,2.37-9.47,6.49-12.28,3.04-2.07,6.16-1.88,9.33-.23,2.77,1.45,3.29,3.39,1.26,5.79-1.22,1.44-2.54,2.84-4,4.03-3.15,2.56-6.23,5.2-8.84,8.31-1.63,1.94-2.6,1.65-3.33-.58-.59-1.81-1.08-3.65-.91-5.04Z"/>
    <path class="cls-1" d="M9.27,317.34c-.03-2.03,.52-3.79,2.49-4.74,1.98-.95,3.74-.22,5.26,1.06,2.41,2.03,3.54,4.87,4.61,7.73,1.1,2.96,2.08,5.99,3.41,8.85,1.2,2.58,.29,3.1-2.12,2.95-6.99-.43-13.57-8.04-13.65-15.86Z"/>
    <path class="cls-1" d="M13.4,342.44c-3.93-.08-7.48-1.41-10.68-3.58-2-1.35-3.43-3.37-2.34-5.86,1.03-2.35,3.32-2.45,5.59-2.08,4.19,.69,8.01,2.44,11.79,4.25,1.2,.57,2.94,.93,2.93,2.63-.02,1.8-1.46,2.86-2.87,3.79-1.35,.89-2.88,.9-4.42,.86Z"/>
  </g>
  <g>
    <path class="cls-2" d="M124.61,307.08c-4.29-.3-7.85-1.49-10.89-3.98-5.82-4.78-9.14-11.17-11.13-18.24-1.32-4.7,.69-8.44,4.53-11.23,5.07-3.67,10.96-5.31,16.99-6.25,4.05-.63,6.86,1.94,8.39,5.34,2.67,5.96,5.65,11.57,10.56,16.09,2.31,2.13,1.76,6.23-.88,9.41-4.64,5.59-10.85,8.12-17.57,8.85Z"/>
    <path class="cls-2" d="M104.6,252.08c-.07-2.57,.26-5.08,1.51-7.36,.9-1.64,2.29-2.81,4.25-2.71,1.88,.1,2.8,1.56,3.46,3.13,1.45,3.46,1.33,7.19,1.74,10.82,.32,2.81,.72,5.56,2.63,7.77,1.49,1.71,.51,2.34-1.02,2.94-3.54,1.39-7.48-.02-9.79-3.71-2.08-3.31-2.75-7.03-2.78-10.89Z"/>
    <path class="cls-2" d="M120.75,253.18c.18-3.17,1.13-6.68,3.15-9.84,1.21-1.89,2.95-2.8,5.17-2.36,2.08,.41,3.09,1.94,3.67,3.9,.73,2.44,.07,4.79-.37,7.13-.7,3.73-1.64,7.43-1.26,11.26,.22,2.26-.78,2.59-2.7,2.14-4.87-1.15-7.83-5.59-7.67-12.23Z"/>
    <path class="cls-2" d="M140.49,277.13c-.11-5.71,2.37-9.47,6.49-12.28,3.04-2.07,6.16-1.88,9.33-.23,2.77,1.45,3.29,3.39,1.26,5.79-1.22,1.44-2.54,2.84-4,4.03-3.15,2.56-6.23,5.2-8.84,8.31-1.63,1.94-2.6,1.65-3.33-.58-.59-1.81-1.08-3.65-.91-5.04Z"/>
    <path class="cls-2" d="M88.67,256.8c-.03-2.03,.52-3.79,2.49-4.74,1.98-.95,3.74-.22,5.26,1.06,2.41,2.03,3.54,4.87,4.61,7.73,1.1,2.96,2.08,5.99,3.41,8.85,1.2,2.58,.29,3.1-2.12,2.95-6.99-.43-13.57-8.04-13.65-15.86Z"/>
    <path class="cls-2" d="M92.8,281.9c-3.93-.08-7.48-1.41-10.68-3.58-2-1.35-3.43-3.37-2.34-5.86,1.03-2.35,3.32-2.45,5.59-2.08,4.19,.69,8.01,2.44,11.79,4.25,1.2,.57,2.94,.93,2.93,2.63-.02,1.8-1.46,2.86-2.87,3.79-1.35,.89-2.88,.9-4.42,.86Z"/>
  </g>
  <g>
    <path class="cls-3" d="M212.12,367.62c-4.29-.3-7.85-1.49-10.89-3.98-5.82-4.78-9.14-11.17-11.13-18.24-1.32-4.7,.69-8.44,4.53-11.23,5.07-3.67,10.96-5.31,16.99-6.25,4.05-.63,6.86,1.94,8.39,5.34,2.67,5.96,5.65,11.57,10.56,16.09,2.31,2.13,1.76,6.23-.88,9.41-4.64,5.59-10.85,8.12-17.57,8.85Z"/>
    <path class="cls-3" d="M192.11,312.62c-.07-2.57,.26-5.08,1.51-7.36,.9-1.64,2.29-2.81,4.25-2.71,1.88,.1,2.8,1.56,3.46,3.13,1.45,3.46,1.33,7.19,1.74,10.82,.32,2.81,.72,5.56,2.63,7.77,1.49,1.71,.51,2.34-1.02,2.94-3.54,1.39-7.48-.02-9.79-3.71-2.08-3.31-2.75-7.03-2.78-10.89Z"/>
    <path class="cls-3" d="M208.26,313.73c.18-3.17,1.13-6.68,3.15-9.84,1.21-1.89,2.95-2.8,5.17-2.36,2.08,.41,3.09,1.94,3.67,3.9,.73,2.44,.07,4.79-.37,7.13-.7,3.73-1.64,7.43-1.26,11.26,.22,2.26-.78,2.59-2.7,2.14-4.87-1.15-7.83-5.59-7.67-12.23Z"/>
    <path class="cls-3" d="M228,337.67c-.11-5.71,2.37-9.47,6.49-12.28,3.04-2.07,6.16-1.88,9.33-.23,2.77,1.45,3.29,3.39,1.26,5.79-1.22,1.44-2.54,2.84-4,4.03-3.15,2.56-6.23,5.2-8.84,8.31-1.63,1.94-2.6,1.65-3.33-.58-.59-1.81-1.08-3.65-.91-5.04Z"/>
    <path class="cls-3" d="M176.18,317.34c-.03-2.03,.52-3.79,2.49-4.74,1.98-.95,3.74-.22,5.26,1.06,2.41,2.03,3.54,4.87,4.61,7.73,1.1,2.96,2.08,5.99,3.41,8.85,1.2,2.58,.29,3.1-2.12,2.95-6.99-.43-13.57-8.04-13.65-15.86Z"/>
    <path class="cls-3" d="M180.31,342.44c-3.93-.08-7.48-1.41-10.68-3.58-2-1.35-3.43-3.37-2.34-5.86,1.03-2.35,3.32-2.45,5.59-2.08,4.19,.69,8.01,2.44,11.79,4.25,1.2,.57,2.94,.93,2.93,2.63-.02,1.8-1.46,2.86-2.87,3.79-1.35,.89-2.88,.9-4.42,.86Z"/>
  </g>
  <g>
    <path class="cls-2" d="M291.52,307.08c-4.29-.3-7.85-1.49-10.89-3.98-5.82-4.78-9.14-11.17-11.13-18.24-1.32-4.7,.69-8.44,4.53-11.23,5.07-3.67,10.96-5.31,16.99-6.25,4.05-.63,6.86,1.94,8.39,5.34,2.67,5.96,5.65,11.57,10.56,16.09,2.31,2.13,1.76,6.23-.88,9.41-4.64,5.59-10.85,8.12-17.57,8.85Z"/>
    <path class="cls-2" d="M271.51,252.08c-.07-2.57,.26-5.08,1.51-7.36,.9-1.64,2.29-2.81,4.25-2.71,1.88,.1,2.8,1.56,3.46,3.13,1.45,3.46,1.33,7.19,1.74,10.82,.32,2.81,.72,5.56,2.63,7.77,1.49,1.71,.51,2.34-1.02,2.94-3.54,1.39-7.48-.02-9.79-3.71-2.08-3.31-2.75-7.03-2.78-10.89Z"/>
    <path class="cls-2" d="M287.66,253.18c.18-3.17,1.13-6.68,3.15-9.84,1.21-1.89,2.95-2.8,5.17-2.36,2.08,.41,3.09,1.94,3.67,3.9,.73,2.44,.07,4.79-.37,7.13-.7,3.73-1.64,7.43-1.26,11.26,.22,2.26-.78,2.59-2.7,2.14-4.87-1.15-7.83-5.59-7.67-12.23Z"/>
    <path class="cls-2" d="M307.4,277.13c-.11-5.71,2.37-9.47,6.49-12.28,3.04-2.07,6.16-1.88,9.33-.23,2.77,1.45,3.29,3.39,1.26,5.79-1.22,1.44-2.54,2.84-4,4.03-3.15,2.56-6.23,5.2-8.84,8.31-1.63,1.94-2.6,1.65-3.33-.58-.59-1.81-1.08-3.65-.91-5.04Z"/>
    <path class="cls-2" d="M255.58,256.8c-.03-2.03,.52-3.79,2.49-4.74,1.98-.95,3.74-.22,5.26,1.06,2.41,2.03,3.54,4.87,4.61,7.73,1.1,2.96,2.08,5.99,3.41,8.85,1.2,2.58,.29,3.1-2.12,2.95-6.99-.43-13.57-8.04-13.65-15.86Z"/>
    <path class="cls-2" d="M259.71,281.9c-3.93-.08-7.48-1.41-10.68-3.58-2-1.35-3.43-3.37-2.34-5.86,1.03-2.35,3.32-2.45,5.59-2.08,4.19,.69,8.01,2.44,11.79,4.25,1.2,.57,2.94,.93,2.93,2.63-.02,1.8-1.46,2.86-2.87,3.79-1.35,.89-2.88,.9-4.42,.86Z"/>
  </g>
  <g>
    <path class="cls-1" d="M379.03,367.62c-4.29-.3-7.85-1.49-10.89-3.98-5.82-4.78-9.14-11.17-11.13-18.24-1.32-4.7,.69-8.44,4.53-11.23,5.07-3.67,10.96-5.31,16.99-6.25,4.05-.63,6.86,1.94,8.39,5.34,2.67,5.96,5.65,11.57,10.56,16.09,2.31,2.13,1.76,6.23-.88,9.41-4.64,5.59-10.85,8.12-17.57,8.85Z"/>
    <path class="cls-1" d="M359.02,312.62c-.07-2.57,.26-5.08,1.51-7.36,.9-1.64,2.29-2.81,4.25-2.71,1.88,.1,2.8,1.56,3.46,3.13,1.45,3.46,1.33,7.19,1.74,10.82,.32,2.81,.72,5.56,2.63,7.77,1.49,1.71,.51,2.34-1.02,2.94-3.54,1.39-7.48-.02-9.79-3.71-2.08-3.31-2.75-7.03-2.78-10.89Z"/>
    <path class="cls-1" d="M375.17,313.73c.18-3.17,1.13-6.68,3.15-9.84,1.21-1.89,2.95-2.8,5.17-2.36,2.08,.41,3.09,1.94,3.67,3.9,.73,2.44,.07,4.79-.37,7.13-.7,3.73-1.64,7.43-1.26,11.26,.22,2.26-.78,2.59-2.7,2.14-4.87-1.15-7.83-5.59-7.67-12.23Z"/>
    <path class="cls-1" d="M394.91,337.67c-.11-5.71,2.37-9.47,6.49-12.28,3.04-2.07,6.16-1.88,9.33-.23,2.77,1.45,3.29,3.39,1.26,5.79-1.22,1.44-2.54,2.84-4,4.03-3.15,2.56-6.23,5.2-8.84,8.31-1.63,1.94-2.6,1.65-3.33-.58-.59-1.81-1.08-3.65-.91-5.04Z"/>
    <path class="cls-1" d="M343.09,317.34c-.03-2.03,.52-3.79,2.49-4.74,1.98-.95,3.74-.22,5.26,1.06,2.41,2.03,3.54,4.87,4.61,7.73,1.1,2.96,2.08,5.99,3.41,8.85,1.2,2.58,.29,3.1-2.12,2.95-6.99-.43-13.57-8.04-13.65-15.86Z"/>
    <path class="cls-1" d="M347.21,342.44c-3.93-.08-7.48-1.41-10.68-3.58-2-1.35-3.43-3.37-2.34-5.86,1.03-2.35,3.32-2.45,5.59-2.08,4.19,.69,8.01,2.44,11.79,4.25,1.2,.57,2.94,.93,2.93,2.63-.02,1.8-1.46,2.86-2.87,3.79-1.35,.89-2.88,.9-4.42,.86Z"/>
  </g>
  <g>
    <path class="cls-2" d="M458.43,307.08c-4.29-.3-7.85-1.49-10.89-3.98-5.82-4.78-9.14-11.17-11.13-18.24-1.32-4.7,.69-8.44,4.53-11.23,5.07-3.67,10.96-5.31,16.99-6.25,4.05-.63,6.86,1.94,8.39,5.34,2.67,5.96,5.65,11.57,10.56,16.09,2.31,2.13,1.76,6.23-.88,9.41-4.64,5.59-10.85,8.12-17.57,8.85Z"/>
    <path class="cls-2" d="M438.42,252.08c-.07-2.57,.26-5.08,1.51-7.36,.9-1.64,2.29-2.81,4.25-2.71,1.88,.1,2.8,1.56,3.46,3.13,1.45,3.46,1.33,7.19,1.74,10.82,.32,2.81,.72,5.56,2.63,7.77,1.49,1.71,.51,2.34-1.02,2.94-3.54,1.39-7.48-.02-9.79-3.71-2.08-3.31-2.75-7.03-2.78-10.89Z"/>
    <path class="cls-2" d="M454.57,253.18c.18-3.17,1.13-6.68,3.15-9.84,1.21-1.89,2.95-2.8,5.17-2.36,2.08,.41,3.09,1.94,3.67,3.9,.73,2.44,.07,4.79-.37,7.13-.7,3.73-1.64,7.43-1.26,11.26,.22,2.26-.78,2.59-2.7,2.14-4.87-1.15-7.83-5.59-7.67-12.23Z"/>
    <path class="cls-2" d="M474.31,277.13c-.11-5.71,2.37-9.47,6.49-12.28,3.04-2.07,6.16-1.88,9.33-.23,2.77,1.45,3.29,3.39,1.26,5.79-1.22,1.44-2.54,2.84-4,4.03-3.15,2.56-6.23,5.2-8.84,8.31-1.63,1.94-2.6,1.65-3.33-.58-.59-1.81-1.08-3.65-.91-5.04Z"/>
    <path class="cls-2" d="M422.49,256.8c-.03-2.03,.52-3.79,2.49-4.74,1.98-.95,3.74-.22,5.26,1.06,2.41,2.03,3.54,4.87,4.61,7.73,1.1,2.96,2.08,5.99,3.41,8.85,1.2,2.58,.29,3.1-2.12,2.95-6.99-.43-13.57-8.04-13.65-15.86Z"/>
    <path class="cls-2" d="M426.61,281.9c-3.93-.08-7.48-1.41-10.68-3.58-2-1.35-3.43-3.37-2.34-5.86,1.03-2.35,3.32-2.45,5.59-2.08,4.19,.69,8.01,2.44,11.79,4.25,1.2,.57,2.94,.93,2.93,2.63-.02,1.8-1.46,2.86-2.87,3.79-1.35,.89-2.88,.9-4.42,.86Z"/>
  </g>
  <g>
    <path class="cls-3" d="M545.94,367.62c-4.29-.3-7.85-1.49-10.89-3.98-5.82-4.78-9.14-11.17-11.13-18.24-1.32-4.7,.69-8.44,4.53-11.23,5.07-3.67,10.96-5.31,16.99-6.25,4.05-.63,6.86,1.94,8.39,5.34,2.67,5.96,5.65,11.57,10.56,16.09,2.31,2.13,1.76,6.23-.88,9.41-4.64,5.59-10.85,8.12-17.57,8.85Z"/>
    <path class="cls-3" d="M525.93,312.62c-.07-2.57,.26-5.08,1.51-7.36,.9-1.64,2.29-2.81,4.25-2.71,1.88,.1,2.8,1.56,3.46,3.13,1.45,3.46,1.33,7.19,1.74,10.82,.32,2.81,.72,5.56,2.63,7.77,1.49,1.71,.51,2.34-1.02,2.94-3.54,1.39-7.48-.02-9.79-3.71-2.08-3.31-2.75-7.03-2.78-10.89Z"/>
    <path class="cls-3" d="M542.08,313.73c.18-3.17,1.13-6.68,3.15-9.84,1.21-1.89,2.95-2.8,5.17-2.36,2.08,.41,3.09,1.94,3.67,3.9,.73,2.44,.07,4.79-.37,7.13-.7,3.73-1.64,7.43-1.26,11.26,.22,2.26-.78,2.59-2.7,2.14-4.87-1.15-7.83-5.59-7.67-12.23Z"/>
    <path class="cls-3" d="M561.82,337.67c-.11-5.71,2.37-9.47,6.49-12.28,3.04-2.07,6.16-1.88,9.33-.23,2.77,1.45,3.29,3.39,1.26,5.79-1.22,1.44-2.54,2.84-4,4.03-3.15,2.56-6.23,5.2-8.84,8.31-1.63,1.94-2.6,1.65-3.33-.58-.59-1.81-1.08-3.65-.91-5.04Z"/>
    <path class="cls-3" d="M510,317.34c-.03-2.03,.52-3.79,2.49-4.74,1.98-.95,3.74-.22,5.26,1.06,2.41,2.03,3.54,4.87,4.61,7.73,1.1,2.96,2.08,5.99,3.41,8.85,1.2,2.58,.29,3.1-2.12,2.95-6.99-.43-13.57-8.04-13.65-15.86Z"/>
    <path class="cls-3" d="M514.12,342.44c-3.93-.08-7.48-1.41-10.68-3.58-2-1.35-3.43-3.37-2.34-5.86,1.03-2.35,3.32-2.45,5.59-2.08,4.19,.69,8.01,2.44,11.79,4.25,1.2,.57,2.94,.93,2.93,2.63-.02,1.8-1.46,2.86-2.87,3.79-1.35,.89-2.88,.9-4.42,.86Z"/>
  </g>
  <g>
    <path class="cls-2" d="M625.34,307.08c-4.29-.3-7.85-1.49-10.89-3.98-5.82-4.78-9.14-11.17-11.13-18.24-1.32-4.7,.69-8.44,4.53-11.23,5.07-3.67,10.96-5.31,16.99-6.25,4.05-.63,6.86,1.94,8.39,5.34,2.67,5.96,5.65,11.57,10.56,16.09,2.31,2.13,1.76,6.23-.88,9.41-4.64,5.59-10.85,8.12-17.57,8.85Z"/>
    <path class="cls-2" d="M605.33,252.08c-.07-2.57,.26-5.08,1.51-7.36,.9-1.64,2.29-2.81,4.25-2.71,1.88,.1,2.8,1.56,3.46,3.13,1.45,3.46,1.33,7.19,1.74,10.82,.32,2.81,.72,5.56,2.63,7.77,1.49,1.71,.51,2.34-1.02,2.94-3.54,1.39-7.48-.02-9.79-3.71-2.08-3.31-2.75-7.03-2.78-10.89Z"/>
    <path class="cls-2" d="M621.48,253.18c.18-3.17,1.13-6.68,3.15-9.84,1.21-1.89,2.95-2.8,5.17-2.36,2.08,.41,3.09,1.94,3.67,3.9,.73,2.44,.07,4.79-.37,7.13-.7,3.73-1.64,7.43-1.26,11.26,.22,2.26-.78,2.59-2.7,2.14-4.87-1.15-7.83-5.59-7.67-12.23Z"/>
    <path class="cls-2" d="M641.22,277.13c-.11-5.71,2.37-9.47,6.49-12.28,3.04-2.07,6.16-1.88,9.33-.23,2.77,1.45,3.29,3.39,1.26,5.79-1.22,1.44-2.54,2.84-4,4.03-3.15,2.56-6.23,5.2-8.84,8.31-1.63,1.94-2.6,1.65-3.33-.58-.59-1.81-1.08-3.65-.91-5.04Z"/>
    <path class="cls-2" d="M589.4,256.8c-.03-2.03,.52-3.79,2.49-4.74,1.98-.95,3.74-.22,5.26,1.06,2.41,2.03,3.54,4.87,4.61,7.73,1.1,2.96,2.08,5.99,3.41,8.85,1.2,2.58,.29,3.1-2.12,2.95-6.99-.43-13.57-8.04-13.65-15.86Z"/>
    <path class="cls-2" d="M593.52,281.9c-3.93-.08-7.48-1.41-10.68-3.58-2-1.35-3.43-3.37-2.34-5.86,1.03-2.35,3.32-2.45,5.59-2.08,4.19,.69,8.01,2.44,11.79,4.25,1.2,.57,2.94,.93,2.93,2.63-.02,1.8-1.46,2.86-2.87,3.79-1.35,.89-2.88,.9-4.42,.86Z"/>
  </g>
  <g>
    <path class="cls-1" d="M712.85,367.62c-4.29-.3-7.85-1.49-10.89-3.98-5.82-4.78-9.14-11.17-11.13-18.24-1.32-4.7,.69-8.44,4.53-11.23,5.07-3.67,10.96-5.31,16.99-6.25,4.05-.63,6.86,1.94,8.39,5.34,2.67,5.96,5.65,11.57,10.56,16.09,2.31,2.13,1.76,6.23-.88,9.41-4.64,5.59-10.85,8.12-17.57,8.85Z"/>
    <path class="cls-1" d="M692.84,312.62c-.07-2.57,.26-5.08,1.51-7.36,.9-1.64,2.29-2.81,4.25-2.71,1.88,.1,2.8,1.56,3.46,3.13,1.45,3.46,1.33,7.19,1.74,10.82,.32,2.81,.72,5.56,2.63,7.77,1.49,1.71,.51,2.34-1.02,2.94-3.54,1.39-7.48-.02-9.79-3.71-2.08-3.31-2.75-7.03-2.78-10.89Z"/>
    <path class="cls-1" d="M708.98,313.73c.18-3.17,1.13-6.68,3.15-9.84,1.21-1.89,2.95-2.8,5.17-2.36,2.08,.41,3.09,1.94,3.67,3.9,.73,2.44,.07,4.79-.37,7.13-.7,3.73-1.64,7.43-1.26,11.26,.22,2.26-.78,2.59-2.7,2.14-4.87-1.15-7.83-5.59-7.67-12.23Z"/>
    <path class="cls-1" d="M728.73,337.67c-.11-5.71,2.37-9.47,6.49-12.28,3.04-2.07,6.16-1.88,9.33-.23,2.77,1.45,3.29,3.39,1.26,5.79-1.22,1.44-2.54,2.84-4,4.03-3.15,2.56-6.23,5.2-8.84,8.31-1.63,1.94-2.6,1.65-3.33-.58-.59-1.81-1.08-3.65-.91-5.04Z"/>
    <path class="cls-1" d="M676.9,317.34c-.03-2.03,.52-3.79,2.49-4.74,1.98-.95,3.74-.22,5.26,1.06,2.41,2.03,3.54,4.87,4.61,7.73,1.1,2.96,2.08,5.99,3.41,8.85,1.2,2.58,.29,3.1-2.12,2.95-6.99-.43-13.57-8.04-13.65-15.86Z"/>
    <path class="cls-1" d="M681.03,342.44c-3.93-.08-7.48-1.41-10.68-3.58-2-1.35-3.43-3.37-2.34-5.86,1.03-2.35,3.32-2.45,5.59-2.08,4.19,.69,8.01,2.44,11.79,4.25,1.2,.57,2.94,.93,2.93,2.63-.02,1.8-1.46,2.86-2.87,3.79-1.35,.89-2.88,.9-4.42,.86Z"/>
  </g>
  <g>
    <path class="cls-2" d="M792.25,307.08c-4.29-.3-7.85-1.49-10.89-3.98-5.82-4.78-9.14-11.17-11.13-18.24-1.32-4.7,.69-8.44,4.53-11.23,5.07-3.67,10.96-5.31,16.99-6.25,4.05-.63,6.86,1.94,8.39,5.34,2.67,5.96,5.65,11.57,10.56,16.09,2.31,2.13,1.76,6.23-.88,9.41-4.64,5.59-10.85,8.12-17.57,8.85Z"/>
    <path class="cls-2" d="M772.24,252.08c-.07-2.57,.26-5.08,1.51-7.36,.9-1.64,2.29-2.81,4.25-2.71,1.88,.1,2.8,1.56,3.46,3.13,1.45,3.46,1.33,7.19,1.74,10.82,.32,2.81,.72,5.56,2.63,7.77,1.49,1.71,.51,2.34-1.02,2.94-3.54,1.39-7.48-.02-9.79-3.71-2.08-3.31-2.75-7.03-2.78-10.89Z"/>
    <path class="cls-2" d="M788.39,253.18c.18-3.17,1.13-6.68,3.15-9.84,1.21-1.89,2.95-2.8,5.17-2.36,2.08,.41,3.09,1.94,3.67,3.9,.73,2.44,.07,4.79-.37,7.13-.7,3.73-1.64,7.43-1.26,11.26,.22,2.26-.78,2.59-2.7,2.14-4.87-1.15-7.83-5.59-7.67-12.23Z"/>
    <path class="cls-2" d="M808.13,277.13c-.11-5.71,2.37-9.47,6.49-12.28,3.04-2.07,6.16-1.88,9.33-.23,2.77,1.45,3.29,3.39,1.26,5.79-1.22,1.44-2.54,2.84-4,4.03-3.15,2.56-6.23,5.2-8.84,8.31-1.63,1.94-2.6,1.65-3.33-.58-.59-1.81-1.08-3.65-.91-5.04Z"/>
    <path class="cls-2" d="M756.31,256.8c-.03-2.03,.52-3.79,2.49-4.74,1.98-.95,3.74-.22,5.26,1.06,2.41,2.03,3.54,4.87,4.61,7.73,1.1,2.96,2.08,5.99,3.41,8.85,1.2,2.58,.29,3.1-2.12,2.95-6.99-.43-13.57-8.04-13.65-15.86Z"/>
    <path class="cls-2" d="M760.43,281.9c-3.93-.08-7.48-1.41-10.68-3.58-2-1.35-3.43-3.37-2.34-5.86,1.03-2.35,3.32-2.45,5.59-2.08,4.19,.69,8.01,2.44,11.79,4.25,1.2,.57,2.94,.93,2.93,2.63-.02,1.8-1.46,2.86-2.87,3.79-1.35,.89-2.88,.9-4.42,.86Z"/>
  </g>
  <g>
    <path class="cls-1" d="M45.21,247.19c-4.29-.3-7.85-1.49-10.89-3.98-5.82-4.78-9.14-11.17-11.13-18.24-1.32-4.7,.69-8.44,4.53-11.23,5.07-3.67,10.96-5.31,16.99-6.25,4.05-.63,6.86,1.94,8.39,5.34,2.67,5.96,5.65,11.57,10.56,16.09,2.31,2.13,1.76,6.23-.88,9.41-4.64,5.59-10.85,8.12-17.57,8.85Z"/>
    <path class="cls-1" d="M25.2,192.19c-.07-2.57,.26-5.08,1.51-7.36,.9-1.64,2.29-2.81,4.25-2.71,1.88,.1,2.8,1.56,3.46,3.13,1.45,3.46,1.33,7.19,1.74,10.82,.32,2.81,.72,5.56,2.63,7.77,1.49,1.71,.51,2.34-1.02,2.94-3.54,1.39-7.48-.02-9.79-3.71-2.08-3.31-2.75-7.03-2.78-10.89Z"/>
    <path class="cls-1" d="M41.35,193.29c.18-3.17,1.13-6.68,3.15-9.84,1.21-1.89,2.95-2.8,5.17-2.36,2.08,.41,3.09,1.94,3.67,3.9,.73,2.44,.07,4.79-.37,7.13-.7,3.73-1.64,7.43-1.26,11.26,.22,2.26-.78,2.59-2.7,2.14-4.87-1.15-7.83-5.59-7.67-12.23Z"/>
    <path class="cls-1" d="M61.09,217.24c-.11-5.71,2.37-9.47,6.49-12.28,3.04-2.07,6.16-1.88,9.33-.23,2.77,1.45,3.29,3.39,1.26,5.79-1.22,1.44-2.54,2.84-4,4.03-3.15,2.56-6.23,5.2-8.84,8.31-1.63,1.94-2.6,1.65-3.33-.58-.59-1.81-1.08-3.65-.91-5.04Z"/>
    <path class="cls-1" d="M9.27,196.91c-.03-2.03,.52-3.79,2.49-4.74,1.98-.95,3.74-.22,5.26,1.06,2.41,2.03,3.54,4.87,4.61,7.73,1.1,2.96,2.08,5.99,3.41,8.85,1.2,2.58,.29,3.1-2.12,2.95-6.99-.43-13.57-8.04-13.65-15.86Z"/>
    <path class="cls-1" d="M13.4,222c-3.93-.08-7.48-1.41-10.68-3.58-2-1.35-3.43-3.37-2.34-5.86,1.03-2.35,3.32-2.45,5.59-2.08,4.19,.69,8.01,2.44,11.79,4.25,1.2,.57,2.94,.93,2.93,2.63-.02,1.8-1.46,2.86-2.87,3.79-1.35,.89-2.88,.9-4.42,.86Z"/>
  </g>
  <g>
    <path class="cls-2" d="M124.61,186.64c-4.29-.3-7.85-1.49-10.89-3.98-5.82-4.78-9.14-11.17-11.13-18.24-1.32-4.7,.69-8.44,4.53-11.23,5.07-3.67,10.96-5.31,16.99-6.25,4.05-.63,6.86,1.94,8.39,5.34,2.67,5.96,5.65,11.57,10.56,16.09,2.31,2.13,1.76,6.23-.88,9.41-4.64,5.59-10.85,8.12-17.57,8.85Z"/>
    <path class="cls-2" d="M104.6,131.64c-.07-2.57,.26-5.08,1.51-7.36,.9-1.64,2.29-2.81,4.25-2.71,1.88,.1,2.8,1.56,3.46,3.13,1.45,3.46,1.33,7.19,1.74,10.82,.32,2.81,.72,5.56,2.63,7.77,1.49,1.71,.51,2.34-1.02,2.94-3.54,1.39-7.48-.02-9.79-3.71-2.08-3.31-2.75-7.03-2.78-10.89Z"/>
    <path class="cls-2" d="M120.75,132.75c.18-3.17,1.13-6.68,3.15-9.84,1.21-1.89,2.95-2.8,5.17-2.36,2.08,.41,3.09,1.94,3.67,3.9,.73,2.44,.07,4.79-.37,7.13-.7,3.73-1.64,7.43-1.26,11.26,.22,2.26-.78,2.59-2.7,2.14-4.87-1.15-7.83-5.59-7.67-12.23Z"/>
    <path class="cls-2" d="M140.49,156.69c-.11-5.71,2.37-9.47,6.49-12.28,3.04-2.07,6.16-1.88,9.33-.23,2.77,1.45,3.29,3.39,1.26,5.79-1.22,1.44-2.54,2.84-4,4.03-3.15,2.56-6.23,5.2-8.84,8.31-1.63,1.94-2.6,1.65-3.33-.58-.59-1.81-1.08-3.65-.91-5.04Z"/>
    <path class="cls-2" d="M88.67,136.36c-.03-2.03,.52-3.79,2.49-4.74,1.98-.95,3.74-.22,5.26,1.06,2.41,2.03,3.54,4.87,4.61,7.73,1.1,2.96,2.08,5.99,3.41,8.85,1.2,2.58,.29,3.1-2.12,2.95-6.99-.43-13.57-8.04-13.65-15.86Z"/>
    <path class="cls-2" d="M92.8,161.46c-3.93-.08-7.48-1.41-10.68-3.58-2-1.35-3.43-3.37-2.34-5.86,1.03-2.35,3.32-2.45,5.59-2.08,4.19,.69,8.01,2.44,11.79,4.25,1.2,.57,2.94,.93,2.93,2.63-.02,1.8-1.46,2.86-2.87,3.79-1.35,.89-2.88,.9-4.42,.86Z"/>
  </g>
  <g>
    <path class="cls-3" d="M212.12,247.19c-4.29-.3-7.85-1.49-10.89-3.98-5.82-4.78-9.14-11.17-11.13-18.24-1.32-4.7,.69-8.44,4.53-11.23,5.07-3.67,10.96-5.31,16.99-6.25,4.05-.63,6.86,1.94,8.39,5.34,2.67,5.96,5.65,11.57,10.56,16.09,2.31,2.13,1.76,6.23-.88,9.41-4.64,5.59-10.85,8.12-17.57,8.85Z"/>
    <path class="cls-3" d="M192.11,192.19c-.07-2.57,.26-5.08,1.51-7.36,.9-1.64,2.29-2.81,4.25-2.71,1.88,.1,2.8,1.56,3.46,3.13,1.45,3.46,1.33,7.19,1.74,10.82,.32,2.81,.72,5.56,2.63,7.77,1.49,1.71,.51,2.34-1.02,2.94-3.54,1.39-7.48-.02-9.79-3.71-2.08-3.31-2.75-7.03-2.78-10.89Z"/>
    <path class="cls-3" d="M208.26,193.29c.18-3.17,1.13-6.68,3.15-9.84,1.21-1.89,2.95-2.8,5.17-2.36,2.08,.41,3.09,1.94,3.67,3.9,.73,2.44,.07,4.79-.37,7.13-.7,3.73-1.64,7.43-1.26,11.26,.22,2.26-.78,2.59-2.7,2.14-4.87-1.15-7.83-5.59-7.67-12.23Z"/>
    <path class="cls-3" d="M228,217.24c-.11-5.71,2.37-9.47,6.49-12.28,3.04-2.07,6.16-1.88,9.33-.23,2.77,1.45,3.29,3.39,1.26,5.79-1.22,1.44-2.54,2.84-4,4.03-3.15,2.56-6.23,5.2-8.84,8.31-1.63,1.94-2.6,1.65-3.33-.58-.59-1.81-1.08-3.65-.91-5.04Z"/>
    <path class="cls-3" d="M176.18,196.91c-.03-2.03,.52-3.79,2.49-4.74,1.98-.95,3.74-.22,5.26,1.06,2.41,2.03,3.54,4.87,4.61,7.73,1.1,2.96,2.08,5.99,3.41,8.85,1.2,2.58,.29,3.1-2.12,2.95-6.99-.43-13.57-8.04-13.65-15.86Z"/>
    <path class="cls-3" d="M180.31,222c-3.93-.08-7.48-1.41-10.68-3.58-2-1.35-3.43-3.37-2.34-5.86,1.03-2.35,3.32-2.45,5.59-2.08,4.19,.69,8.01,2.44,11.79,4.25,1.2,.57,2.94,.93,2.93,2.63-.02,1.8-1.46,2.86-2.87,3.79-1.35,.89-2.88,.9-4.42,.86Z"/>
  </g>
  <g>
    <path class="cls-2" d="M291.52,186.64c-4.29-.3-7.85-1.49-10.89-3.98-5.82-4.78-9.14-11.17-11.13-18.24-1.32-4.7,.69-8.44,4.53-11.23,5.07-3.67,10.96-5.31,16.99-6.25,4.05-.63,6.86,1.94,8.39,5.34,2.67,5.96,5.65,11.57,10.56,16.09,2.31,2.13,1.76,6.23-.88,9.41-4.64,5.59-10.85,8.12-17.57,8.85Z"/>
    <path class="cls-2" d="M271.51,131.64c-.07-2.57,.26-5.08,1.51-7.36,.9-1.64,2.29-2.81,4.25-2.71,1.88,.1,2.8,1.56,3.46,3.13,1.45,3.46,1.33,7.19,1.74,10.82,.32,2.81,.72,5.56,2.63,7.77,1.49,1.71,.51,2.34-1.02,2.94-3.54,1.39-7.48-.02-9.79-3.71-2.08-3.31-2.75-7.03-2.78-10.89Z"/>
    <path class="cls-2" d="M287.66,132.75c.18-3.17,1.13-6.68,3.15-9.84,1.21-1.89,2.95-2.8,5.17-2.36,2.08,.41,3.09,1.94,3.67,3.9,.73,2.44,.07,4.79-.37,7.13-.7,3.73-1.64,7.43-1.26,11.26,.22,2.26-.78,2.59-2.7,2.14-4.87-1.15-7.83-5.59-7.67-12.23Z"/>
    <path class="cls-2" d="M307.4,156.69c-.11-5.71,2.37-9.47,6.49-12.28,3.04-2.07,6.16-1.88,9.33-.23,2.77,1.45,3.29,3.39,1.26,5.79-1.22,1.44-2.54,2.84-4,4.03-3.15,2.56-6.23,5.2-8.84,8.31-1.63,1.94-2.6,1.65-3.33-.58-.59-1.81-1.08-3.65-.91-5.04Z"/>
    <path class="cls-2" d="M255.58,136.36c-.03-2.03,.52-3.79,2.49-4.74,1.98-.95,3.74-.22,5.26,1.06,2.41,2.03,3.54,4.87,4.61,7.73,1.1,2.96,2.08,5.99,3.41,8.85,1.2,2.58,.29,3.1-2.12,2.95-6.99-.43-13.57-8.04-13.65-15.86Z"/>
    <path class="cls-2" d="M259.71,161.46c-3.93-.08-7.48-1.41-10.68-3.58-2-1.35-3.43-3.37-2.34-5.86,1.03-2.35,3.32-2.45,5.59-2.08,4.19,.69,8.01,2.44,11.79,4.25,1.2,.57,2.94,.93,2.93,2.63-.02,1.8-1.46,2.86-2.87,3.79-1.35,.89-2.88,.9-4.42,.86Z"/>
  </g>
  <g>
    <path class="cls-1" d="M379.03,247.19c-4.29-.3-7.85-1.49-10.89-3.98-5.82-4.78-9.14-11.17-11.13-18.24-1.32-4.7,.69-8.44,4.53-11.23,5.07-3.67,10.96-5.31,16.99-6.25,4.05-.63,6.86,1.94,8.39,5.34,2.67,5.96,5.65,11.57,10.56,16.09,2.31,2.13,1.76,6.23-.88,9.41-4.64,5.59-10.85,8.12-17.57,8.85Z"/>
    <path class="cls-1" d="M359.02,192.19c-.07-2.57,.26-5.08,1.51-7.36,.9-1.64,2.29-2.81,4.25-2.71,1.88,.1,2.8,1.56,3.46,3.13,1.45,3.46,1.33,7.19,1.74,10.82,.32,2.81,.72,5.56,2.63,7.77,1.49,1.71,.51,2.34-1.02,2.94-3.54,1.39-7.48-.02-9.79-3.71-2.08-3.31-2.75-7.03-2.78-10.89Z"/>
    <path class="cls-1" d="M375.17,193.29c.18-3.17,1.13-6.68,3.15-9.84,1.21-1.89,2.95-2.8,5.17-2.36,2.08,.41,3.09,1.94,3.67,3.9,.73,2.44,.07,4.79-.37,7.13-.7,3.73-1.64,7.43-1.26,11.26,.22,2.26-.78,2.59-2.7,2.14-4.87-1.15-7.83-5.59-7.67-12.23Z"/>
    <path class="cls-1" d="M394.91,217.24c-.11-5.71,2.37-9.47,6.49-12.28,3.04-2.07,6.16-1.88,9.33-.23,2.77,1.45,3.29,3.39,1.26,5.79-1.22,1.44-2.54,2.84-4,4.03-3.15,2.56-6.23,5.2-8.84,8.31-1.63,1.94-2.6,1.65-3.33-.58-.59-1.81-1.08-3.65-.91-5.04Z"/>
    <path class="cls-1" d="M343.09,196.91c-.03-2.03,.52-3.79,2.49-4.74,1.98-.95,3.74-.22,5.26,1.06,2.41,2.03,3.54,4.87,4.61,7.73,1.1,2.96,2.08,5.99,3.41,8.85,1.2,2.58,.29,3.1-2.12,2.95-6.99-.43-13.57-8.04-13.65-15.86Z"/>
    <path class="cls-1" d="M347.21,222c-3.93-.08-7.48-1.41-10.68-3.58-2-1.35-3.43-3.37-2.34-5.86,1.03-2.35,3.32-2.45,5.59-2.08,4.19,.69,8.01,2.44,11.79,4.25,1.2,.57,2.94,.93,2.93,2.63-.02,1.8-1.46,2.86-2.87,3.79-1.35,.89-2.88,.9-4.42,.86Z"/>
  </g>
  <g>
    <path class="cls-2" d="M458.43,186.64c-4.29-.3-7.85-1.49-10.89-3.98-5.82-4.78-9.14-11.17-11.13-18.24-1.32-4.7,.69-8.44,4.53-11.23,5.07-3.67,10.96-5.31,16.99-6.25,4.05-.63,6.86,1.94,8.39,5.34,2.67,5.96,5.65,11.57,10.56,16.09,2.31,2.13,1.76,6.23-.88,9.41-4.64,5.59-10.85,8.12-17.57,8.85Z"/>
    <path class="cls-2" d="M438.42,131.64c-.07-2.57,.26-5.08,1.51-7.36,.9-1.64,2.29-2.81,4.25-2.71,1.88,.1,2.8,1.56,3.46,3.13,1.45,3.46,1.33,7.19,1.74,10.82,.32,2.81,.72,5.56,2.63,7.77,1.49,1.71,.51,2.34-1.02,2.94-3.54,1.39-7.48-.02-9.79-3.71-2.08-3.31-2.75-7.03-2.78-10.89Z"/>
    <path class="cls-2" d="M454.57,132.75c.18-3.17,1.13-6.68,3.15-9.84,1.21-1.89,2.95-2.8,5.17-2.36,2.08,.41,3.09,1.94,3.67,3.9,.73,2.44,.07,4.79-.37,7.13-.7,3.73-1.64,7.43-1.26,11.26,.22,2.26-.78,2.59-2.7,2.14-4.87-1.15-7.83-5.59-7.67-12.23Z"/>
    <path class="cls-2" d="M474.31,156.69c-.11-5.71,2.37-9.47,6.49-12.28,3.04-2.07,6.16-1.88,9.33-.23,2.77,1.45,3.29,3.39,1.26,5.79-1.22,1.44-2.54,2.84-4,4.03-3.15,2.56-6.23,5.2-8.84,8.31-1.63,1.94-2.6,1.65-3.33-.58-.59-1.81-1.08-3.65-.91-5.04Z"/>
    <path class="cls-2" d="M422.49,136.36c-.03-2.03,.52-3.79,2.49-4.74,1.98-.95,3.74-.22,5.26,1.06,2.41,2.03,3.54,4.87,4.61,7.73,1.1,2.96,2.08,5.99,3.41,8.85,1.2,2.58,.29,3.1-2.12,2.95-6.99-.43-13.57-8.04-13.65-15.86Z"/>
    <path class="cls-2" d="M426.61,161.46c-3.93-.08-7.48-1.41-10.68-3.58-2-1.35-3.43-3.37-2.34-5.86,1.03-2.35,3.32-2.45,5.59-2.08,4.19,.69,8.01,2.44,11.79,4.25,1.2,.57,2.94,.93,2.93,2.63-.02,1.8-1.46,2.86-2.87,3.79-1.35,.89-2.88,.9-4.42,.86Z"/>
  </g>
  <g>
    <path class="cls-3" d="M545.94,247.19c-4.29-.3-7.85-1.49-10.89-3.98-5.82-4.78-9.14-11.17-11.13-18.24-1.32-4.7,.69-8.44,4.53-11.23,5.07-3.67,10.96-5.31,16.99-6.25,4.05-.63,6.86,1.94,8.39,5.34,2.67,5.96,5.65,11.57,10.56,16.09,2.31,2.13,1.76,6.23-.88,9.41-4.64,5.59-10.85,8.12-17.57,8.85Z"/>
    <path class="cls-3" d="M525.93,192.19c-.07-2.57,.26-5.08,1.51-7.36,.9-1.64,2.29-2.81,4.25-2.71,1.88,.1,2.8,1.56,3.46,3.13,1.45,3.46,1.33,7.19,1.74,10.82,.32,2.81,.72,5.56,2.63,7.77,1.49,1.71,.51,2.34-1.02,2.94-3.54,1.39-7.48-.02-9.79-3.71-2.08-3.31-2.75-7.03-2.78-10.89Z"/>
    <path class="cls-3" d="M542.08,193.29c.18-3.17,1.13-6.68,3.15-9.84,1.21-1.89,2.95-2.8,5.17-2.36,2.08,.41,3.09,1.94,3.67,3.9,.73,2.44,.07,4.79-.37,7.13-.7,3.73-1.64,7.43-1.26,11.26,.22,2.26-.78,2.59-2.7,2.14-4.87-1.15-7.83-5.59-7.67-12.23Z"/>
    <path class="cls-3" d="M561.82,217.24c-.11-5.71,2.37-9.47,6.49-12.28,3.04-2.07,6.16-1.88,9.33-.23,2.77,1.45,3.29,3.39,1.26,5.79-1.22,1.44-2.54,2.84-4,4.03-3.15,2.56-6.23,5.2-8.84,8.31-1.63,1.94-2.6,1.65-3.33-.58-.59-1.81-1.08-3.65-.91-5.04Z"/>
    <path class="cls-3" d="M510,196.91c-.03-2.03,.52-3.79,2.49-4.74,1.98-.95,3.74-.22,5.26,1.06,2.41,2.03,3.54,4.87,4.61,7.73,1.1,2.96,2.08,5.99,3.41,8.85,1.2,2.58,.29,3.1-2.12,2.95-6.99-.43-13.57-8.04-13.65-15.86Z"/>
    <path class="cls-3" d="M514.12,222c-3.93-.08-7.48-1.41-10.68-3.58-2-1.35-3.43-3.37-2.34-5.86,1.03-2.35,3.32-2.45,5.59-2.08,4.19,.69,8.01,2.44,11.79,4.25,1.2,.57,2.94,.93,2.93,2.63-.02,1.8-1.46,2.86-2.87,3.79-1.35,.89-2.88,.9-4.42,.86Z"/>
  </g>
  <g>
    <path class="cls-2" d="M625.34,186.64c-4.29-.3-7.85-1.49-10.89-3.98-5.82-4.78-9.14-11.17-11.13-18.24-1.32-4.7,.69-8.44,4.53-11.23,5.07-3.67,10.96-5.31,16.99-6.25,4.05-.63,6.86,1.94,8.39,5.34,2.67,5.96,5.65,11.57,10.56,16.09,2.31,2.13,1.76,6.23-.88,9.41-4.64,5.59-10.85,8.12-17.57,8.85Z"/>
    <path class="cls-2" d="M605.33,131.64c-.07-2.57,.26-5.08,1.51-7.36,.9-1.64,2.29-2.81,4.25-2.71,1.88,.1,2.8,1.56,3.46,3.13,1.45,3.46,1.33,7.19,1.74,10.82,.32,2.81,.72,5.56,2.63,7.77,1.49,1.71,.51,2.34-1.02,2.94-3.54,1.39-7.48-.02-9.79-3.71-2.08-3.31-2.75-7.03-2.78-10.89Z"/>
    <path class="cls-2" d="M621.48,132.75c.18-3.17,1.13-6.68,3.15-9.84,1.21-1.89,2.95-2.8,5.17-2.36,2.08,.41,3.09,1.94,3.67,3.9,.73,2.44,.07,4.79-.37,7.13-.7,3.73-1.64,7.43-1.26,11.26,.22,2.26-.78,2.59-2.7,2.14-4.87-1.15-7.83-5.59-7.67-12.23Z"/>
    <path class="cls-2" d="M641.22,156.69c-.11-5.71,2.37-9.47,6.49-12.28,3.04-2.07,6.16-1.88,9.33-.23,2.77,1.45,3.29,3.39,1.26,5.79-1.22,1.44-2.54,2.84-4,4.03-3.15,2.56-6.23,5.2-8.84,8.31-1.63,1.94-2.6,1.65-3.33-.58-.59-1.81-1.08-3.65-.91-5.04Z"/>
    <path class="cls-2" d="M589.4,136.36c-.03-2.03,.52-3.79,2.49-4.74,1.98-.95,3.74-.22,5.26,1.06,2.41,2.03,3.54,4.87,4.61,7.73,1.1,2.96,2.08,5.99,3.41,8.85,1.2,2.58,.29,3.1-2.12,2.95-6.99-.43-13.57-8.04-13.65-15.86Z"/>
    <path class="cls-2" d="M593.52,161.46c-3.93-.08-7.48-1.41-10.68-3.58-2-1.35-3.43-3.37-2.34-5.86,1.03-2.35,3.32-2.45,5.59-2.08,4.19,.69,8.01,2.44,11.79,4.25,1.2,.57,2.94,.93,2.93,2.63-.02,1.8-1.46,2.86-2.87,3.79-1.35,.89-2.88,.9-4.42,.86Z"/>
  </g>
  <g>
    <path class="cls-1" d="M712.85,247.19c-4.29-.3-7.85-1.49-10.89-3.98-5.82-4.78-9.14-11.17-11.13-18.24-1.32-4.7,.69-8.44,4.53-11.23,5.07-3.67,10.96-5.31,16.99-6.25,4.05-.63,6.86,1.94,8.39,5.34,2.67,5.96,5.65,11.57,10.56,16.09,2.31,2.13,1.76,6.23-.88,9.41-4.64,5.59-10.85,8.12-17.57,8.85Z"/>
    <path class="cls-1" d="M692.84,192.19c-.07-2.57,.26-5.08,1.51-7.36,.9-1.64,2.29-2.81,4.25-2.71,1.88,.1,2.8,1.56,3.46,3.13,1.45,3.46,1.33,7.19,1.74,10.82,.32,2.81,.72,5.56,2.63,7.77,1.49,1.71,.51,2.34-1.02,2.94-3.54,1.39-7.48-.02-9.79-3.71-2.08-3.31-2.75-7.03-2.78-10.89Z"/>
    <path class="cls-1" d="M708.98,193.29c.18-3.17,1.13-6.68,3.15-9.84,1.21-1.89,2.95-2.8,5.17-2.36,2.08,.41,3.09,1.94,3.67,3.9,.73,2.44,.07,4.79-.37,7.13-.7,3.73-1.64,7.43-1.26,11.26,.22,2.26-.78,2.59-2.7,2.14-4.87-1.15-7.83-5.59-7.67-12.23Z"/>
    <path class="cls-1" d="M728.73,217.24c-.11-5.71,2.37-9.47,6.49-12.28,3.04-2.07,6.16-1.88,9.33-.23,2.77,1.45,3.29,3.39,1.26,5.79-1.22,1.44-2.54,2.84-4,4.03-3.15,2.56-6.23,5.2-8.84,8.31-1.63,1.94-2.6,1.65-3.33-.58-.59-1.81-1.08-3.65-.91-5.04Z"/>
    <path class="cls-1" d="M676.9,196.91c-.03-2.03,.52-3.79,2.49-4.74,1.98-.95,3.74-.22,5.26,1.06,2.41,2.03,3.54,4.87,4.61,7.73,1.1,2.96,2.08,5.99,3.41,8.85,1.2,2.58,.29,3.1-2.12,2.95-6.99-.43-13.57-8.04-13.65-15.86Z"/>
    <path class="cls-1" d="M681.03,222c-3.93-.08-7.48-1.41-10.68-3.58-2-1.35-3.43-3.37-2.34-5.86,1.03-2.35,3.32-2.45,5.59-2.08,4.19,.69,8.01,2.44,11.79,4.25,1.2,.57,2.94,.93,2.93,2.63-.02,1.8-1.46,2.86-2.87,3.79-1.35,.89-2.88,.9-4.42,.86Z"/>
  </g>
  <g>
    <path class="cls-2" d="M792.25,186.64c-4.29-.3-7.85-1.49-10.89-3.98-5.82-4.78-9.14-11.17-11.13-18.24-1.32-4.7,.69-8.44,4.53-11.23,5.07-3.67,10.96-5.31,16.99-6.25,4.05-.63,6.86,1.94,8.39,5.34,2.67,5.96,5.65,11.57,10.56,16.09,2.31,2.13,1.76,6.23-.88,9.41-4.64,5.59-10.85,8.12-17.57,8.85Z"/>
    <path class="cls-2" d="M772.24,131.64c-.07-2.57,.26-5.08,1.51-7.36,.9-1.64,2.29-2.81,4.25-2.71,1.88,.1,2.8,1.56,3.46,3.13,1.45,3.46,1.33,7.19,1.74,10.82,.32,2.81,.72,5.56,2.63,7.77,1.49,1.71,.51,2.34-1.02,2.94-3.54,1.39-7.48-.02-9.79-3.71-2.08-3.31-2.75-7.03-2.78-10.89Z"/>
    <path class="cls-2" d="M788.39,132.75c.18-3.17,1.13-6.68,3.15-9.84,1.21-1.89,2.95-2.8,5.17-2.36,2.08,.41,3.09,1.94,3.67,3.9,.73,2.44,.07,4.79-.37,7.13-.7,3.73-1.64,7.43-1.26,11.26,.22,2.26-.78,2.59-2.7,2.14-4.87-1.15-7.83-5.59-7.67-12.23Z"/>
    <path class="cls-2" d="M808.13,156.69c-.11-5.71,2.37-9.47,6.49-12.28,3.04-2.07,6.16-1.88,9.33-.23,2.77,1.45,3.29,3.39,1.26,5.79-1.22,1.44-2.54,2.84-4,4.03-3.15,2.56-6.23,5.2-8.84,8.31-1.63,1.94-2.6,1.65-3.33-.58-.59-1.81-1.08-3.65-.91-5.04Z"/>
    <path class="cls-2" d="M756.31,136.36c-.03-2.03,.52-3.79,2.49-4.74,1.98-.95,3.74-.22,5.26,1.06,2.41,2.03,3.54,4.87,4.61,7.73,1.1,2.96,2.08,5.99,3.41,8.85,1.2,2.58,.29,3.1-2.12,2.95-6.99-.43-13.57-8.04-13.65-15.86Z"/>
    <path class="cls-2" d="M760.43,161.46c-3.93-.08-7.48-1.41-10.68-3.58-2-1.35-3.43-3.37-2.34-5.86,1.03-2.35,3.32-2.45,5.59-2.08,4.19,.69,8.01,2.44,11.79,4.25,1.2,.57,2.94,.93,2.93,2.63-.02,1.8-1.46,2.86-2.87,3.79-1.35,.89-2.88,.9-4.42,.86Z"/>
  </g>
  <g>
    <path class="cls-1" d="M45.21,126.75c-4.29-.3-7.85-1.49-10.89-3.98-5.82-4.78-9.14-11.17-11.13-18.24-1.32-4.7,.69-8.44,4.53-11.23,5.07-3.67,10.96-5.31,16.99-6.25,4.05-.63,6.86,1.94,8.39,5.34,2.67,5.96,5.65,11.57,10.56,16.09,2.31,2.13,1.76,6.23-.88,9.41-4.64,5.59-10.85,8.12-17.57,8.85Z"/>
    <path class="cls-1" d="M25.2,71.75c-.07-2.57,.26-5.08,1.51-7.36,.9-1.64,2.29-2.81,4.25-2.71,1.88,.1,2.8,1.56,3.46,3.13,1.45,3.46,1.33,7.19,1.74,10.82,.32,2.81,.72,5.56,2.63,7.77,1.49,1.71,.51,2.34-1.02,2.94-3.54,1.39-7.48-.02-9.79-3.71-2.08-3.31-2.75-7.03-2.78-10.89Z"/>
    <path class="cls-1" d="M41.35,72.86c.18-3.17,1.13-6.68,3.15-9.84,1.21-1.89,2.95-2.8,5.17-2.36,2.08,.41,3.09,1.94,3.67,3.9,.73,2.44,.07,4.79-.37,7.13-.7,3.73-1.64,7.43-1.26,11.26,.22,2.26-.78,2.59-2.7,2.14-4.87-1.15-7.83-5.59-7.67-12.23Z"/>
    <path class="cls-1" d="M61.09,96.8c-.11-5.71,2.37-9.47,6.49-12.28,3.04-2.07,6.16-1.88,9.33-.23,2.77,1.45,3.29,3.39,1.26,5.79-1.22,1.44-2.54,2.84-4,4.03-3.15,2.56-6.23,5.2-8.84,8.31-1.63,1.94-2.6,1.65-3.33-.58-.59-1.81-1.08-3.65-.91-5.04Z"/>
    <path class="cls-1" d="M9.27,76.47c-.03-2.03,.52-3.79,2.49-4.74,1.98-.95,3.74-.22,5.26,1.06,2.41,2.03,3.54,4.87,4.61,7.73,1.1,2.96,2.08,5.99,3.41,8.85,1.2,2.58,.29,3.1-2.12,2.95-6.99-.43-13.57-8.04-13.65-15.86Z"/>
    <path class="cls-1" d="M13.4,101.57c-3.93-.08-7.48-1.41-10.68-3.58-2-1.35-3.43-3.37-2.34-5.86,1.03-2.35,3.32-2.45,5.59-2.08,4.19,.69,8.01,2.44,11.79,4.25,1.2,.57,2.94,.93,2.93,2.63-.02,1.8-1.46,2.86-2.87,3.79-1.35,.89-2.88,.9-4.42,.86Z"/>
  </g>
  <g>
    <path class="cls-2" d="M124.61,66.2c-4.29-.3-7.85-1.49-10.89-3.98-5.82-4.78-9.14-11.17-11.13-18.24-1.32-4.7,.69-8.44,4.53-11.23,5.07-3.67,10.96-5.31,16.99-6.25,4.05-.63,6.86,1.94,8.39,5.34,2.67,5.96,5.65,11.57,10.56,16.09,2.31,2.13,1.76,6.23-.88,9.41-4.64,5.59-10.85,8.12-17.57,8.85Z"/>
    <path class="cls-2" d="M104.6,11.21c-.07-2.57,.26-5.08,1.51-7.36,.9-1.64,2.29-2.81,4.25-2.71,1.88,.1,2.8,1.56,3.46,3.13,1.45,3.46,1.33,7.19,1.74,10.82,.32,2.81,.72,5.56,2.63,7.77,1.49,1.71,.51,2.34-1.02,2.94-3.54,1.39-7.48-.02-9.79-3.71-2.08-3.31-2.75-7.03-2.78-10.89Z"/>
    <path class="cls-2" d="M120.75,12.31c.18-3.17,1.13-6.68,3.15-9.84,1.21-1.89,2.95-2.8,5.17-2.36,2.08,.41,3.09,1.94,3.67,3.9,.73,2.44,.07,4.79-.37,7.13-.7,3.73-1.64,7.43-1.26,11.26,.22,2.26-.78,2.59-2.7,2.14-4.87-1.15-7.83-5.59-7.67-12.23Z"/>
    <path class="cls-2" d="M140.49,36.25c-.11-5.71,2.37-9.47,6.49-12.28,3.04-2.07,6.16-1.88,9.33-.23,2.77,1.45,3.29,3.39,1.26,5.79-1.22,1.44-2.54,2.84-4,4.03-3.15,2.56-6.23,5.2-8.84,8.31-1.63,1.94-2.6,1.65-3.33-.58-.59-1.81-1.08-3.65-.91-5.04Z"/>
    <path class="cls-2" d="M88.67,15.92c-.03-2.03,.52-3.79,2.49-4.74,1.98-.95,3.74-.22,5.26,1.06,2.41,2.03,3.54,4.87,4.61,7.73,1.1,2.96,2.08,5.99,3.41,8.85,1.2,2.58,.29,3.1-2.12,2.95-6.99-.43-13.57-8.04-13.65-15.86Z"/>
    <path class="cls-2" d="M92.8,41.02c-3.93-.08-7.48-1.41-10.68-3.58-2-1.35-3.43-3.37-2.34-5.86,1.03-2.35,3.32-2.45,5.59-2.08,4.19,.69,8.01,2.44,11.79,4.25,1.2,.57,2.94,.93,2.93,2.63-.02,1.8-1.46,2.86-2.87,3.79-1.35,.89-2.88,.9-4.42,.86Z"/>
  </g>
  <g>
    <path class="cls-3" d="M212.12,126.75c-4.29-.3-7.85-1.49-10.89-3.98-5.82-4.78-9.14-11.17-11.13-18.24-1.32-4.7,.69-8.44,4.53-11.23,5.07-3.67,10.96-5.31,16.99-6.25,4.05-.63,6.86,1.94,8.39,5.34,2.67,5.96,5.65,11.57,10.56,16.09,2.31,2.13,1.76,6.23-.88,9.41-4.64,5.59-10.85,8.12-17.57,8.85Z"/>
    <path class="cls-3" d="M192.11,71.75c-.07-2.57,.26-5.08,1.51-7.36,.9-1.64,2.29-2.81,4.25-2.71,1.88,.1,2.8,1.56,3.46,3.13,1.45,3.46,1.33,7.19,1.74,10.82,.32,2.81,.72,5.56,2.63,7.77,1.49,1.71,.51,2.34-1.02,2.94-3.54,1.39-7.48-.02-9.79-3.71-2.08-3.31-2.75-7.03-2.78-10.89Z"/>
    <path class="cls-3" d="M208.26,72.86c.18-3.17,1.13-6.68,3.15-9.84,1.21-1.89,2.95-2.8,5.17-2.36,2.08,.41,3.09,1.94,3.67,3.9,.73,2.44,.07,4.79-.37,7.13-.7,3.73-1.64,7.43-1.26,11.26,.22,2.26-.78,2.59-2.7,2.14-4.87-1.15-7.83-5.59-7.67-12.23Z"/>
    <path class="cls-3" d="M228,96.8c-.11-5.71,2.37-9.47,6.49-12.28,3.04-2.07,6.16-1.88,9.33-.23,2.77,1.45,3.29,3.39,1.26,5.79-1.22,1.44-2.54,2.84-4,4.03-3.15,2.56-6.23,5.2-8.84,8.31-1.63,1.94-2.6,1.65-3.33-.58-.59-1.81-1.08-3.65-.91-5.04Z"/>
    <path class="cls-3" d="M176.18,76.47c-.03-2.03,.52-3.79,2.49-4.74,1.98-.95,3.74-.22,5.26,1.06,2.41,2.03,3.54,4.87,4.61,7.73,1.1,2.96,2.08,5.99,3.41,8.85,1.2,2.58,.29,3.1-2.12,2.95-6.99-.43-13.57-8.04-13.65-15.86Z"/>
    <path class="cls-3" d="M180.31,101.57c-3.93-.08-7.48-1.41-10.68-3.58-2-1.35-3.43-3.37-2.34-5.86,1.03-2.35,3.32-2.45,5.59-2.08,4.19,.69,8.01,2.44,11.79,4.25,1.2,.57,2.94,.93,2.93,2.63-.02,1.8-1.46,2.86-2.87,3.79-1.35,.89-2.88,.9-4.42,.86Z"/>
  </g>
  <g>
    <path class="cls-2" d="M291.52,66.2c-4.29-.3-7.85-1.49-10.89-3.98-5.82-4.78-9.14-11.17-11.13-18.24-1.32-4.7,.69-8.44,4.53-11.23,5.07-3.67,10.96-5.31,16.99-6.25,4.05-.63,6.86,1.94,8.39,5.34,2.67,5.96,5.65,11.57,10.56,16.09,2.31,2.13,1.76,6.23-.88,9.41-4.64,5.59-10.85,8.12-17.57,8.85Z"/>
    <path class="cls-2" d="M271.51,11.21c-.07-2.57,.26-5.08,1.51-7.36,.9-1.64,2.29-2.81,4.25-2.71,1.88,.1,2.8,1.56,3.46,3.13,1.45,3.46,1.33,7.19,1.74,10.82,.32,2.81,.72,5.56,2.63,7.77,1.49,1.71,.51,2.34-1.02,2.94-3.54,1.39-7.48-.02-9.79-3.71-2.08-3.31-2.75-7.03-2.78-10.89Z"/>
    <path class="cls-2" d="M287.66,12.31c.18-3.17,1.13-6.68,3.15-9.84,1.21-1.89,2.95-2.8,5.17-2.36,2.08,.41,3.09,1.94,3.67,3.9,.73,2.44,.07,4.79-.37,7.13-.7,3.73-1.64,7.43-1.26,11.26,.22,2.26-.78,2.59-2.7,2.14-4.87-1.15-7.83-5.59-7.67-12.23Z"/>
    <path class="cls-2" d="M307.4,36.25c-.11-5.71,2.37-9.47,6.49-12.28,3.04-2.07,6.16-1.88,9.33-.23,2.77,1.45,3.29,3.39,1.26,5.79-1.22,1.44-2.54,2.84-4,4.03-3.15,2.56-6.23,5.2-8.84,8.31-1.63,1.94-2.6,1.65-3.33-.58-.59-1.81-1.08-3.65-.91-5.04Z"/>
    <path class="cls-2" d="M255.58,15.92c-.03-2.03,.52-3.79,2.49-4.74,1.98-.95,3.74-.22,5.26,1.06,2.41,2.03,3.54,4.87,4.61,7.73,1.1,2.96,2.08,5.99,3.41,8.85,1.2,2.58,.29,3.1-2.12,2.95-6.99-.43-13.57-8.04-13.65-15.86Z"/>
    <path class="cls-2" d="M259.71,41.02c-3.93-.08-7.48-1.41-10.68-3.58-2-1.35-3.43-3.37-2.34-5.86,1.03-2.35,3.32-2.45,5.59-2.08,4.19,.69,8.01,2.44,11.79,4.25,1.2,.57,2.94,.93,2.93,2.63-.02,1.8-1.46,2.86-2.87,3.79-1.35,.89-2.88,.9-4.42,.86Z"/>
  </g>
  <g>
    <path class="cls-1" d="M379.03,126.75c-4.29-.3-7.85-1.49-10.89-3.98-5.82-4.78-9.14-11.17-11.13-18.24-1.32-4.7,.69-8.44,4.53-11.23,5.07-3.67,10.96-5.31,16.99-6.25,4.05-.63,6.86,1.94,8.39,5.34,2.67,5.96,5.65,11.57,10.56,16.09,2.31,2.13,1.76,6.23-.88,9.41-4.64,5.59-10.85,8.12-17.57,8.85Z"/>
    <path class="cls-1" d="M359.02,71.75c-.07-2.57,.26-5.08,1.51-7.36,.9-1.64,2.29-2.81,4.25-2.71,1.88,.1,2.8,1.56,3.46,3.13,1.45,3.46,1.33,7.19,1.74,10.82,.32,2.81,.72,5.56,2.63,7.77,1.49,1.71,.51,2.34-1.02,2.94-3.54,1.39-7.48-.02-9.79-3.71-2.08-3.31-2.75-7.03-2.78-10.89Z"/>
    <path class="cls-1" d="M375.17,72.86c.18-3.17,1.13-6.68,3.15-9.84,1.21-1.89,2.95-2.8,5.17-2.36,2.08,.41,3.09,1.94,3.67,3.9,.73,2.44,.07,4.79-.37,7.13-.7,3.73-1.64,7.43-1.26,11.26,.22,2.26-.78,2.59-2.7,2.14-4.87-1.15-7.83-5.59-7.67-12.23Z"/>
    <path class="cls-1" d="M394.91,96.8c-.11-5.71,2.37-9.47,6.49-12.28,3.04-2.07,6.16-1.88,9.33-.23,2.77,1.45,3.29,3.39,1.26,5.79-1.22,1.44-2.54,2.84-4,4.03-3.15,2.56-6.23,5.2-8.84,8.31-1.63,1.94-2.6,1.65-3.33-.58-.59-1.81-1.08-3.65-.91-5.04Z"/>
    <path class="cls-1" d="M343.09,76.47c-.03-2.03,.52-3.79,2.49-4.74,1.98-.95,3.74-.22,5.26,1.06,2.41,2.03,3.54,4.87,4.61,7.73,1.1,2.96,2.08,5.99,3.41,8.85,1.2,2.58,.29,3.1-2.12,2.95-6.99-.43-13.57-8.04-13.65-15.86Z"/>
    <path class="cls-1" d="M347.21,101.57c-3.93-.08-7.48-1.41-10.68-3.58-2-1.35-3.43-3.37-2.34-5.86,1.03-2.35,3.32-2.45,5.59-2.08,4.19,.69,8.01,2.44,11.79,4.25,1.2,.57,2.94,.93,2.93,2.63-.02,1.8-1.46,2.86-2.87,3.79-1.35,.89-2.88,.9-4.42,.86Z"/>
  </g>
  <g>
    <path class="cls-2" d="M458.43,66.2c-4.29-.3-7.85-1.49-10.89-3.98-5.82-4.78-9.14-11.17-11.13-18.24-1.32-4.7,.69-8.44,4.53-11.23,5.07-3.67,10.96-5.31,16.99-6.25,4.05-.63,6.86,1.94,8.39,5.34,2.67,5.96,5.65,11.57,10.56,16.09,2.31,2.13,1.76,6.23-.88,9.41-4.64,5.59-10.85,8.12-17.57,8.85Z"/>
    <path class="cls-2" d="M438.42,11.21c-.07-2.57,.26-5.08,1.51-7.36,.9-1.64,2.29-2.81,4.25-2.71,1.88,.1,2.8,1.56,3.46,3.13,1.45,3.46,1.33,7.19,1.74,10.82,.32,2.81,.72,5.56,2.63,7.77,1.49,1.71,.51,2.34-1.02,2.94-3.54,1.39-7.48-.02-9.79-3.71-2.08-3.31-2.75-7.03-2.78-10.89Z"/>
    <path class="cls-2" d="M454.57,12.31c.18-3.17,1.13-6.68,3.15-9.84,1.21-1.89,2.95-2.8,5.17-2.36,2.08,.41,3.09,1.94,3.67,3.9,.73,2.44,.07,4.79-.37,7.13-.7,3.73-1.64,7.43-1.26,11.26,.22,2.26-.78,2.59-2.7,2.14-4.87-1.15-7.83-5.59-7.67-12.23Z"/>
    <path class="cls-2" d="M474.31,36.25c-.11-5.71,2.37-9.47,6.49-12.28,3.04-2.07,6.16-1.88,9.33-.23,2.77,1.45,3.29,3.39,1.26,5.79-1.22,1.44-2.54,2.84-4,4.03-3.15,2.56-6.23,5.2-8.84,8.31-1.63,1.94-2.6,1.65-3.33-.58-.59-1.81-1.08-3.65-.91-5.04Z"/>
    <path class="cls-2" d="M422.49,15.92c-.03-2.03,.52-3.79,2.49-4.74,1.98-.95,3.74-.22,5.26,1.06,2.41,2.03,3.54,4.87,4.61,7.73,1.1,2.96,2.08,5.99,3.41,8.85,1.2,2.58,.29,3.1-2.12,2.95-6.99-.43-13.57-8.04-13.65-15.86Z"/>
    <path class="cls-2" d="M426.61,41.02c-3.93-.08-7.48-1.41-10.68-3.58-2-1.35-3.43-3.37-2.34-5.86,1.03-2.35,3.32-2.45,5.59-2.08,4.19,.69,8.01,2.44,11.79,4.25,1.2,.57,2.94,.93,2.93,2.63-.02,1.8-1.46,2.86-2.87,3.79-1.35,.89-2.88,.9-4.42,.86Z"/>
  </g>
  <g>
    <path class="cls-3" d="M545.94,126.75c-4.29-.3-7.85-1.49-10.89-3.98-5.82-4.78-9.14-11.17-11.13-18.24-1.32-4.7,.69-8.44,4.53-11.23,5.07-3.67,10.96-5.31,16.99-6.25,4.05-.63,6.86,1.94,8.39,5.34,2.67,5.96,5.65,11.57,10.56,16.09,2.31,2.13,1.76,6.23-.88,9.41-4.64,5.59-10.85,8.12-17.57,8.85Z"/>
    <path class="cls-3" d="M525.93,71.75c-.07-2.57,.26-5.08,1.51-7.36,.9-1.64,2.29-2.81,4.25-2.71,1.88,.1,2.8,1.56,3.46,3.13,1.45,3.46,1.33,7.19,1.74,10.82,.32,2.81,.72,5.56,2.63,7.77,1.49,1.71,.51,2.34-1.02,2.94-3.54,1.39-7.48-.02-9.79-3.71-2.08-3.31-2.75-7.03-2.78-10.89Z"/>
    <path class="cls-3" d="M542.08,72.86c.18-3.17,1.13-6.68,3.15-9.84,1.21-1.89,2.95-2.8,5.17-2.36,2.08,.41,3.09,1.94,3.67,3.9,.73,2.44,.07,4.79-.37,7.13-.7,3.73-1.64,7.43-1.26,11.26,.22,2.26-.78,2.59-2.7,2.14-4.87-1.15-7.83-5.59-7.67-12.23Z"/>
    <path class="cls-3" d="M561.82,96.8c-.11-5.71,2.37-9.47,6.49-12.28,3.04-2.07,6.16-1.88,9.33-.23,2.77,1.45,3.29,3.39,1.26,5.79-1.22,1.44-2.54,2.84-4,4.03-3.15,2.56-6.23,5.2-8.84,8.31-1.63,1.94-2.6,1.65-3.33-.58-.59-1.81-1.08-3.65-.91-5.04Z"/>
    <path class="cls-3" d="M510,76.47c-.03-2.03,.52-3.79,2.49-4.74,1.98-.95,3.74-.22,5.26,1.06,2.41,2.03,3.54,4.87,4.61,7.73,1.1,2.96,2.08,5.99,3.41,8.85,1.2,2.58,.29,3.1-2.12,2.95-6.99-.43-13.57-8.04-13.65-15.86Z"/>
    <path class="cls-3" d="M514.12,101.57c-3.93-.08-7.48-1.41-10.68-3.58-2-1.35-3.43-3.37-2.34-5.86,1.03-2.35,3.32-2.45,5.59-2.08,4.19,.69,8.01,2.44,11.79,4.25,1.2,.57,2.94,.93,2.93,2.63-.02,1.8-1.46,2.86-2.87,3.79-1.35,.89-2.88,.9-4.42,.86Z"/>
  </g>
  <g>
    <path class="cls-2" d="M625.34,66.2c-4.29-.3-7.85-1.49-10.89-3.98-5.82-4.78-9.14-11.17-11.13-18.24-1.32-4.7,.69-8.44,4.53-11.23,5.07-3.67,10.96-5.31,16.99-6.25,4.05-.63,6.86,1.94,8.39,5.34,2.67,5.96,5.65,11.57,10.56,16.09,2.31,2.13,1.76,6.23-.88,9.41-4.64,5.59-10.85,8.12-17.57,8.85Z"/>
    <path class="cls-2" d="M605.33,11.21c-.07-2.57,.26-5.08,1.51-7.36,.9-1.64,2.29-2.81,4.25-2.71,1.88,.1,2.8,1.56,3.46,3.13,1.45,3.46,1.33,7.19,1.74,10.82,.32,2.81,.72,5.56,2.63,7.77,1.49,1.71,.51,2.34-1.02,2.94-3.54,1.39-7.48-.02-9.79-3.71-2.08-3.31-2.75-7.03-2.78-10.89Z"/>
    <path class="cls-2" d="M621.48,12.31c.18-3.17,1.13-6.68,3.15-9.84,1.21-1.89,2.95-2.8,5.17-2.36,2.08,.41,3.09,1.94,3.67,3.9,.73,2.44,.07,4.79-.37,7.13-.7,3.73-1.64,7.43-1.26,11.26,.22,2.26-.78,2.59-2.7,2.14-4.87-1.15-7.83-5.59-7.67-12.23Z"/>
    <path class="cls-2" d="M641.22,36.25c-.11-5.71,2.37-9.47,6.49-12.28,3.04-2.07,6.16-1.88,9.33-.23,2.77,1.45,3.29,3.39,1.26,5.79-1.22,1.44-2.54,2.84-4,4.03-3.15,2.56-6.23,5.2-8.84,8.31-1.63,1.94-2.6,1.65-3.33-.58-.59-1.81-1.08-3.65-.91-5.04Z"/>
    <path class="cls-2" d="M589.4,15.92c-.03-2.03,.52-3.79,2.49-4.74,1.98-.95,3.74-.22,5.26,1.06,2.41,2.03,3.54,4.87,4.61,7.73,1.1,2.96,2.08,5.99,3.41,8.85,1.2,2.58,.29,3.1-2.12,2.95-6.99-.43-13.57-8.04-13.65-15.86Z"/>
    <path class="cls-2" d="M593.52,41.02c-3.93-.08-7.48-1.41-10.68-3.58-2-1.35-3.43-3.37-2.34-5.86,1.03-2.35,3.32-2.45,5.59-2.08,4.19,.69,8.01,2.44,11.79,4.25,1.2,.57,2.94,.93,2.93,2.63-.02,1.8-1.46,2.86-2.87,3.79-1.35,.89-2.88,.9-4.42,.86Z"/>
  </g>
  <g>
    <path class="cls-1" d="M712.85,126.75c-4.29-.3-7.85-1.49-10.89-3.98-5.82-4.78-9.14-11.17-11.13-18.24-1.32-4.7,.69-8.44,4.53-11.23,5.07-3.67,10.96-5.31,16.99-6.25,4.05-.63,6.86,1.94,8.39,5.34,2.67,5.96,5.65,11.57,10.56,16.09,2.31,2.13,1.76,6.23-.88,9.41-4.64,5.59-10.85,8.12-17.57,8.85Z"/>
    <path class="cls-1" d="M692.84,71.75c-.07-2.57,.26-5.08,1.51-7.36,.9-1.64,2.29-2.81,4.25-2.71,1.88,.1,2.8,1.56,3.46,3.13,1.45,3.46,1.33,7.19,1.74,10.82,.32,2.81,.72,5.56,2.63,7.77,1.49,1.71,.51,2.34-1.02,2.94-3.54,1.39-7.48-.02-9.79-3.71-2.08-3.31-2.75-7.03-2.78-10.89Z"/>
    <path class="cls-1" d="M708.98,72.86c.18-3.17,1.13-6.68,3.15-9.84,1.21-1.89,2.95-2.8,5.17-2.36,2.08,.41,3.09,1.94,3.67,3.9,.73,2.44,.07,4.79-.37,7.13-.7,3.73-1.64,7.43-1.26,11.26,.22,2.26-.78,2.59-2.7,2.14-4.87-1.15-7.83-5.59-7.67-12.23Z"/>
    <path class="cls-1" d="M728.73,96.8c-.11-5.71,2.37-9.47,6.49-12.28,3.04-2.07,6.16-1.88,9.33-.23,2.77,1.45,3.29,3.39,1.26,5.79-1.22,1.44-2.54,2.84-4,4.03-3.15,2.56-6.23,5.2-8.84,8.31-1.63,1.94-2.6,1.65-3.33-.58-.59-1.81-1.08-3.65-.91-5.04Z"/>
    <path class="cls-1" d="M676.9,76.47c-.03-2.03,.52-3.79,2.49-4.74,1.98-.95,3.74-.22,5.26,1.06,2.41,2.03,3.54,4.87,4.61,7.73,1.1,2.96,2.08,5.99,3.41,8.85,1.2,2.58,.29,3.1-2.12,2.95-6.99-.43-13.57-8.04-13.65-15.86Z"/>
    <path class="cls-1" d="M681.03,101.57c-3.93-.08-7.48-1.41-10.68-3.58-2-1.35-3.43-3.37-2.34-5.86,1.03-2.35,3.32-2.45,5.59-2.08,4.19,.69,8.01,2.44,11.79,4.25,1.2,.57,2.94,.93,2.93,2.63-.02,1.8-1.46,2.86-2.87,3.79-1.35,.89-2.88,.9-4.42,.86Z"/>
  </g>
  <g>
    <path class="cls-2" d="M792.25,66.2c-4.29-.3-7.85-1.49-10.89-3.98-5.82-4.78-9.14-11.17-11.13-18.24-1.32-4.7,.69-8.44,4.53-11.23,5.07-3.67,10.96-5.31,16.99-6.25,4.05-.63,6.86,1.94,8.39,5.34,2.67,5.96,5.65,11.57,10.56,16.09,2.31,2.13,1.76,6.23-.88,9.41-4.64,5.59-10.85,8.12-17.57,8.85Z"/>
    <path class="cls-2" d="M772.24,11.21c-.07-2.57,.26-5.08,1.51-7.36,.9-1.64,2.29-2.81,4.25-2.71,1.88,.1,2.8,1.56,3.46,3.13,1.45,3.46,1.33,7.19,1.74,10.82,.32,2.81,.72,5.56,2.63,7.77,1.49,1.71,.51,2.34-1.02,2.94-3.54,1.39-7.48-.02-9.79-3.71-2.08-3.31-2.75-7.03-2.78-10.89Z"/>
    <path class="cls-2" d="M788.39,12.31c.18-3.17,1.13-6.68,3.15-9.84,1.21-1.89,2.95-2.8,5.17-2.36,2.08,.41,3.09,1.94,3.67,3.9,.73,2.44,.07,4.79-.37,7.13-.7,3.73-1.64,7.43-1.26,11.26,.22,2.26-.78,2.59-2.7,2.14-4.87-1.15-7.83-5.59-7.67-12.23Z"/>
    <path class="cls-2" d="M808.13,36.25c-.11-5.71,2.37-9.47,6.49-12.28,3.04-2.07,6.16-1.88,9.33-.23,2.77,1.45,3.29,3.39,1.26,5.79-1.22,1.44-2.54,2.84-4,4.03-3.15,2.56-6.23,5.2-8.84,8.31-1.63,1.94-2.6,1.65-3.33-.58-.59-1.81-1.08-3.65-.91-5.04Z"/>
    <path class="cls-2" d="M756.31,15.92c-.03-2.03,.52-3.79,2.49-4.74,1.98-.95,3.74-.22,5.26,1.06,2.41,2.03,3.54,4.87,4.61,7.73,1.1,2.96,2.08,5.99,3.41,8.85,1.2,2.58,.29,3.1-2.12,2.95-6.99-.43-13.57-8.04-13.65-15.86Z"/>
    <path class="cls-2" d="M760.43,41.02c-3.93-.08-7.48-1.41-10.68-3.58-2-1.35-3.43-3.37-2.34-5.86,1.03-2.35,3.32-2.45,5.59-2.08,4.19,.69,8.01,2.44,11.79,4.25,1.2,.57,2.94,.93,2.93,2.63-.02,1.8-1.46,2.86-2.87,3.79-1.35,.89-2.88,.9-4.42,.86Z"/>
  </g>
</svg>