<?xml version="1.0" encoding="UTF-8"?>
<svg id="Layer_1" data-name="Layer 1" xmlns="http://www.w3.org/2000/svg" viewBox="0 0 623.15 202.12">
  <defs>

  </defs>
  <path class="cls-1"
    d="M143.26,179.76c-10.1,11.35-22.06,18.62-36.66,21.23-3.61,.65-7.26,1.12-10.95,1.12-28.3,0-56.59,.03-84.89,0-7.85,0-12.35-5.98-10.26-13.44,1.23-4.41,4.7-6.97,9.78-7,10.81-.05,21.61-.02,32.42-.02,1.21,0,2.41,0,4.39,0-1.31-1.69-2.24-2.86-3.13-4.05-14.89-19.82-17.91-41.48-8.67-64.32,9.14-22.61,26.52-35.67,50.54-39.21,36.18-5.32,69.44,21.55,72.85,58.1,.85,9.11-.27,18.26,1.17,27.33,.94,5.95,1.96,11.85,4.71,17.31,1.51,2.98,3.67,4.39,7.15,4.37,39.21-.15,78.42-.18,117.64-.28,4.34-.01,8.68-.28,13.02-.33,2.09-.02,3.03-.86,3.02-2.99-.04-15.04-.06-30.08-.01-45.12,0-2.52-1.38-3.91-3.39-4.88-3.47-1.68-7.16-2.38-11.01-2.34-16.59,.16-33.18,.44-49.78,.45-15.81,0-31.63-.31-47.44-.44-5.16-.04-8.59-2.36-10.53-7.17-4.59-11.33-4.76-23.07-2.84-34.84,4.76-29.1,19.04-52.26,44.08-68.26,13.7-8.76,29-12.91,45.08-14.41,20.56-1.92,40.63,1.08,60.51,6.04,4.3,1.07,7.11,3.62,7.83,8.1,.68,4.22-.89,7.63-4.13,10.32-2.65,2.21-5.69,2.28-8.86,1.52-9.42-2.28-18.85-4.53-28.53-5.3-22.86-1.82-45.06-.17-64.64,13.56-15.66,10.98-25.06,26.21-29.72,44.58-1.74,6.86-2.39,13.81-1.98,20.86,.24,4.17,.6,4.51,4.75,4.51,27.96,0,55.92,0,83.88,0,9.37,0,18.51,.97,26.38,6.74,7.37,5.39,11.46,12.36,11.28,21.85-.28,14.37-.03,28.74-.16,43.11-.03,2.98,.85,4.12,3.98,4.11,29.08-.12,58.15-.12,87.23-.12,2.19,0,3.75-.32,3.52-3.05-.24-2.93,2.44-3.86,4.11-5.25,6.42-5.37,4.34-5.03,9.78,.18,2.39,2.28,5.18,4.23,6.8,7.25,.44,.81,1.29,.8,2.07,.8,21.93,0,43.87,0,65.74,0,.58-1.34-.46-1.8-.94-2.42-20.04-26.14-18.43-60.96,3.96-85.07,22.85-24.61,64.12-26.18,88.87-3.35,15.02,13.86,22.49,30.97,21.82,51.47-.99,30.06-25.94,57.02-55.79,60.47-5.35,.62-10.64,.76-15.98,.03-1.87-.26-3.78-.3-5.67-.3-114.74,.07-229.48,.15-344.22,.27-9.13,0-18.27,.05-27.39,.51-13.9,.71-23.14-5.64-28.77-17.97-.6-1.31-1.23-2.6-2.03-4.29Zm-92.4-41.78c0,24.07,19.39,43.48,43.56,43.63,24.61,.15,43.8-19.45,43.81-44.75,.01-23.19-20.09-43.03-43.62-43.03-24.37,0-43.76,19.56-43.75,44.15Zm508.19-44.15c-24.41,0-44.25,19.91-44.16,44.3,.09,23.74,20.04,43.51,43.92,43.5,24.01-.01,43.9-19.91,43.89-43.91,0-23.69-20.09-43.88-43.64-43.88Z" />
  <path class="cls-1"
    d="M429.71,86.53c-3.75-.26-6.88-1.3-9.53-3.49-5.09-4.18-8-9.78-9.74-15.97-1.16-4.12,.61-7.39,3.97-9.83,4.44-3.22,9.59-4.65,14.87-5.47,3.55-.56,6,1.7,7.34,4.68,2.34,5.21,4.94,10.13,9.24,14.09,2.02,1.86,1.54,5.45-.77,8.24-4.06,4.89-9.5,7.11-15.38,7.75Z" />
  <path class="cls-1"
    d="M420.89,111.92c0-1.78-.03-3.56,0-5.34,.13-6.03,4.15-10.37,10.03-10.19,5.56,.16,10.47,3.27,10.43,10.15-.02,3.78,.02,7.57-.01,11.35,0,.85,.37,2.05-.5,2.45-1.12,.52-1.69-.75-2.37-1.39-1.62-1.53-3.23-3.07-4.7-4.74-1.14-1.29-2.06-1.31-3.33-.19-2.26,1.98-4.62,3.83-6.96,5.71-.59,.47-1.24,1.14-2.07,.68-.66-.37-.5-1.17-.51-1.82-.02-2.22,0-4.45-.01-6.68Z" />
  <path class="cls-1"
    d="M412.19,38.38c-.06-2.25,.23-4.45,1.32-6.44,.78-1.43,2.01-2.46,3.72-2.37,1.65,.09,2.46,1.36,3.03,2.74,1.27,3.03,1.16,6.3,1.52,9.48,.28,2.46,.63,4.87,2.31,6.8,1.3,1.5,.45,2.04-.9,2.57-3.1,1.22-6.55-.02-8.57-3.25-1.82-2.9-2.41-6.16-2.43-9.53Z" />
  <path class="cls-1"
    d="M426.32,39.34c.16-2.77,.99-5.84,2.76-8.62,1.06-1.66,2.59-2.45,4.53-2.06,1.82,.36,2.7,1.7,3.22,3.41,.64,2.14,.06,4.19-.32,6.24-.61,3.27-1.44,6.5-1.11,9.86,.19,1.98-.69,2.27-2.36,1.88-4.26-1-6.86-4.89-6.71-10.7Z" />
  <path class="cls-1"
    d="M443.61,60.31c-.09-5,2.07-8.29,5.68-10.75,2.66-1.82,5.39-1.65,8.17-.2,2.42,1.27,2.88,2.97,1.11,5.07-1.07,1.26-2.22,2.49-3.51,3.53-2.76,2.24-5.46,4.55-7.74,7.28-1.42,1.7-2.28,1.44-2.91-.51-.51-1.58-.95-3.19-.8-4.41Z" />
  <path class="cls-1"
    d="M441.35,160.56c0,.44,.04,.89,0,1.33-.1,.84,.4,2.05-.55,2.41-1.14,.43-1.61-.88-2.27-1.56-2.09-2.15-4.19-4.29-6.2-6.5-1.03-1.13-1.87-1.25-3.06-.2-2,1.75-4.14,3.34-6.19,5.04-1.4,1.16-2.03,1-2.2-.93-.31-3.41,.44-5.96,3.42-8.31,6.61-5.23,6.44-5.45,12.53,.47q4.53,4.4,4.54,8.25Z" />
  <path class="cls-1"
    d="M398.24,42.51c-.03-1.78,.46-3.32,2.18-4.15,1.74-.83,3.27-.19,4.6,.93,2.11,1.78,3.1,4.26,4.03,6.77,.97,2.59,1.82,5.24,2.99,7.75,1.05,2.26,.26,2.71-1.85,2.58-6.12-.38-11.88-7.04-11.95-13.88Z" />
  <path class="cls-1"
    d="M441.34,138.55c0,.96,.06,1.64-.02,2.29-.06,.52-.15,1.24-.49,1.47-.7,.45-1.21-.28-1.66-.72-1.98-1.96-3.99-3.88-5.86-5.94-1.38-1.52-2.52-1.83-4.16-.3-1.95,1.81-4.12,3.38-6.19,5.07-1.19,.97-1.92,1.03-2.09-.81-.28-3.15,0-6.03,3.16-7.76,.19-.11,.37-.25,.55-.38,2.34-1.79,4.67-5.69,7.03-4.89,3.84,1.29,6.33,5.36,9.26,8.38,.96,.99,.36,2.58,.46,3.6Z" />
  <path class="cls-1"
    d="M401.85,64.48c-3.44-.07-6.55-1.24-9.35-3.13-1.75-1.19-3-2.95-2.05-5.13,.9-2.06,2.9-2.15,4.89-1.82,3.67,.6,7.01,2.14,10.32,3.72,1.05,.5,2.58,.81,2.56,2.3-.01,1.57-1.28,2.51-2.51,3.32-1.18,.78-2.52,.78-3.87,.75Z" />
</svg>